<svg xmlns="http://www.w3.org/2000/svg" viewBox="-957 13.25 18 15.75"><defs><style>.a{fill:#fff;}</style></defs><path class="a" d="M17.156,5.063H15.04A3.091,3.091,0,0,0,12.656,0C11.18,0,10.23.763,9,2.447,7.77.763,6.82,0,5.344,0A3.091,3.091,0,0,0,2.96,5.063H.844A.842.842,0,0,0,0,5.906v4.5a.842.842,0,0,0,.844.844h.281v2.813A1.688,1.688,0,0,0,2.813,15.75H15.188a1.688,1.688,0,0,0,1.688-1.687V11.25h.281A.842.842,0,0,0,18,10.406v-4.5A.842.842,0,0,0,17.156,5.063ZM9.7,4.395c1.638-2.44,2.183-2.707,2.957-2.707a1.406,1.406,0,0,1,0,2.813H9.629ZM5.344,1.688c.773,0,1.318.267,2.957,2.707l.07.105H5.344a1.406,1.406,0,0,1,0-2.812ZM2.813,14.063V11.25h4.5V9.563H1.688V6.75H8.156v7.313Zm13.5-4.5H10.688V11.25h4.5v2.813H9.844V6.75h6.469Z" transform="translate(-957 13.25)"/></svg>