<svg id="Layer_1" data-name="Layer 1" xmlns="http://www.w3.org/2000/svg" viewBox="0 0 219.95 80.71"><defs><style>.cls-1{fill:#ce1141;}.cls-2{fill:#fff;}.cls-3{fill:#0060a9;}.cls-4{fill:#231f20;}</style></defs><title>my-ammat-logo</title><path class="cls-1" d="M13.64,35.69h6.65a62.73,62.73,0,0,0-2.1-6c-0.59-1.35-1-2-1.37-2s-0.67.55-1.11,1.66-1.13,3.22-2.07,6.37m-13,14.24A3.26,3.26,0,0,1,1,48.26,4.28,4.28,0,0,1,2.76,47a2.91,2.91,0,0,0,1.57-1.29,28.6,28.6,0,0,0,1.17-2.93Q6.23,40.66,8,35.07l0.61-1.89Q13.23,19,13.66,16c0-.07,0-0.19.06-0.36q0.59-4.2,3.66-4.2a7.06,7.06,0,0,1,3,.57,5.51,5.51,0,0,1,2.1,1.79,28.17,28.17,0,0,1,2.72,5.35q1.48,3.59,4.52,12.64,0.82,2.5,2.08,6.61,2,6.39,2.84,7.59a2.34,2.34,0,0,0,1.08.74,2.05,2.05,0,0,1,.47.22,2.32,2.32,0,0,1,.85,1,3,3,0,0,1,.32,1.34,3.44,3.44,0,0,1-2.11,3.28,15.75,15.75,0,0,1-6.62,1q-5.12,0-7.17-.84a2.93,2.93,0,0,1-2-2.87,3.51,3.51,0,0,1,.25-1.41,2.67,2.67,0,0,1,.83-1l0.49-.3a1.8,1.8,0,0,0,1.1-1.53,1.86,1.86,0,0,0-1.5-1.76,16.08,16.08,0,0,0-4.91-.53,9,9,0,0,0-3.69.52,2.23,2.23,0,0,0-.81,2.81,2.31,2.31,0,0,0,1,.7,2.68,2.68,0,0,1,1.25,1,3.13,3.13,0,0,1,.29,1.51,3,3,0,0,1-1.64,2.85,11,11,0,0,1-5.08.9,10,10,0,0,1-4.78-.91A3,3,0,0,1,.65,49.93"/><path class="cls-2" d="M36.55,46.4h0ZM14.37,15.76c0.46-3.28,1.94-3.65,3-3.65a6.41,6.41,0,0,1,2.72.51A4.91,4.91,0,0,1,22,14.19,28.14,28.14,0,0,1,24.6,19.4c1,2.37,2.49,6.6,4.51,12.6l2.08,6.59c1.79,5.82,2.53,7.24,2.94,7.79a2.92,2.92,0,0,0,1.39,1l0.33,0.15a1.68,1.68,0,0,1,.62.72,2.35,2.35,0,0,1,.25,1A2.78,2.78,0,0,1,35,52a15.15,15.15,0,0,1-6.33,1c-3.31,0-5.64-.26-6.92-0.79a2.29,2.29,0,0,1-1.64-2.27,2.89,2.89,0,0,1,.2-1.14A2,2,0,0,1,20.89,48l0.42-.26a2.39,2.39,0,0,0,1.43-2.09,2.47,2.47,0,0,0-1.93-2.38,16.54,16.54,0,0,0-5.13-.57,9.45,9.45,0,0,0-4,.59,2.52,2.52,0,0,0-1.38,2.42A2.42,2.42,0,0,0,10.62,47a2.73,2.73,0,0,0,1.32,1,2,2,0,0,1,.94.68,2.51,2.51,0,0,1,.21,1.19,2.38,2.38,0,0,1-1.3,2.28A10.39,10.39,0,0,1,7,52.93a9.33,9.33,0,0,1-4.45-.82,2.31,2.31,0,0,1-1.26-2.19,2.58,2.58,0,0,1,.28-1.33A3.53,3.53,0,0,1,3,47.54a3.44,3.44,0,0,0,1.87-1.59,28,28,0,0,0,1.19-3l2.54-7.68,0.61-1.89c3.1-9.59,4.75-15.24,5-17.28l0.06-.34h0Zm-1.3-.2L13,15.89c-0.28,2-2,7.7-5,17.08L7.4,34.87,4.87,42.52a27.46,27.46,0,0,1-1.13,2.85,2.3,2.3,0,0,1-1.25,1,4.76,4.76,0,0,0-2,1.58,3.82,3.82,0,0,0-.46,2,3.64,3.64,0,0,0,1.92,3.32,10.36,10.36,0,0,0,5.11,1,11.37,11.37,0,0,0,5.4-1A4.14,4.14,0,0,0,14,48a3.2,3.2,0,0,0-1.54-1.23,1.9,1.9,0,0,1-.74-0.45,1.26,1.26,0,0,1-.12-0.63,1.22,1.22,0,0,1,.66-1.25A8.07,8.07,0,0,1,15.68,44a15.53,15.53,0,0,1,4.69.5,1.21,1.21,0,0,1,1.06,1.14,1.1,1.1,0,0,1-.77,1l-0.53.33a3.34,3.34,0,0,0-1.06,1.3,4.16,4.16,0,0,0-.31,1.67,3.59,3.59,0,0,0,2.46,3.48c1.46,0.6,3.89.89,7.42,0.89a16.28,16.28,0,0,0,6.91-1.11A4.14,4.14,0,0,0,38,49.27a3.71,3.71,0,0,0-.38-1.63,3,3,0,0,0-1.09-1.24L36,46.11a1.61,1.61,0,0,1-.78-0.52c-0.37-.5-1.15-2.2-2.74-7.39l-2.08-6.62c-2-6-3.56-10.29-4.54-12.68A28.94,28.94,0,0,0,23,13.43a6.09,6.09,0,0,0-2.36-2,7.64,7.64,0,0,0-3.28-.64c-1.66,0-3.75.83-4.3,4.76"/><path class="cls-2" d="M16.32,29.57a7,7,0,0,1,.51-1.07A8.18,8.18,0,0,1,17.59,30c0.5,1.16,1.11,2.89,1.81,5.08H14.53c0.79-2.63,1.4-4.5,1.79-5.46h0Zm-1.22-.49C14.65,30.21,14,32.31,13,35.5l-0.25.84h8.42l-0.26-.85c-0.82-2.66-1.54-4.7-2.13-6.07C18,27.67,17.49,27,16.82,27s-1.22.83-1.72,2.07"/><path class="cls-1" d="M75.52,44.91a5.62,5.62,0,0,0,.71,2.59,5.1,5.1,0,0,1,.7,2.12,3.3,3.3,0,0,1-1.53,3,9.08,9.08,0,0,1-4.74,1A9.35,9.35,0,0,1,66,52.67a3,3,0,0,1-1.54-2.78A5.94,5.94,0,0,1,65,47.63l0.25-.58a10.37,10.37,0,0,0,.38-2.6q0.11-1.86.12-6a20.15,20.15,0,0,0-.4-4.91,1.39,1.39,0,0,0-2.78-.16,12.62,12.62,0,0,0-.44,3.94c0,2.44,0,4.39.11,5.83a17.8,17.8,0,0,0,.34,3.1,2.74,2.74,0,0,0,.21.53,6.8,6.8,0,0,1,.65,2.83A3.35,3.35,0,0,1,62,52.67a9.41,9.41,0,0,1-4.79.92,9.74,9.74,0,0,1-4.73-.83A3,3,0,0,1,51.08,50a5.82,5.82,0,0,1,.82-2.65l0.33-.65A5.34,5.34,0,0,0,52.58,45q0.11-1.17.11-4.95a29,29,0,0,0-.43-6.24c-0.28-1.07-.8-1.61-1.53-1.61a1.38,1.38,0,0,0-1.22,1.31,30.08,30.08,0,0,0-.34,5.8V44a14.82,14.82,0,0,0,.4,3.37,13.9,13.9,0,0,1,.4,2.14,3.51,3.51,0,0,1-1.43,3.09,8.24,8.24,0,0,1-4.55,1,9.58,9.58,0,0,1-4.87-.95,3.27,3.27,0,0,1-1.52-3,3.33,3.33,0,0,1,.95-2.19c0.25-.29.45-0.53,0.58-0.69a5,5,0,0,0,.53-2.15q0.16-1.6.16-6.4c0-2.41-.05-4-0.15-4.9a4.44,4.44,0,0,0-.52-1.84l-0.47-.61a3.63,3.63,0,0,1-1-2.25,3.23,3.23,0,0,1,.76-2.2,9.29,9.29,0,0,1,2.87-1.89,18.77,18.77,0,0,1,3.37-1.33,10.84,10.84,0,0,1,2.81-.48,1.52,1.52,0,0,1,1,.26,1.59,1.59,0,0,1,.46.92,14.29,14.29,0,0,1,.22,2.37q0.06,1.66.57,1.66A1.32,1.32,0,0,0,50.51,27a11.25,11.25,0,0,1,.7-1.26,7.69,7.69,0,0,1,2.47-2.29,6.15,6.15,0,0,1,3.08-.79,4.76,4.76,0,0,1,2.4.6,5.11,5.11,0,0,1,1.79,1.81,16.38,16.38,0,0,1,.77,1.57,1.65,1.65,0,0,0,.69,1,1.64,1.64,0,0,0,.78-0.85,14.55,14.55,0,0,1,.88-1.29,9.33,9.33,0,0,1,2.45-2.23,5.12,5.12,0,0,1,2.57-.62,5.44,5.44,0,0,1,4.82,2.41q1.62,2.43,1.62,7.21V44.91"/><path class="cls-2" d="M38.16,31.28h0ZM63.39,46.51l-0.17-.39a17.14,17.14,0,0,1-.32-3c-0.07-1.41-.11-3.36-0.11-5.8a11.93,11.93,0,0,1,.4-3.71c0.29-.8.64-0.8,0.79-0.8s0.47,0,.74.92a19.89,19.89,0,0,1,.38,4.73c0,2.71,0,4.71-.11,5.94a9.64,9.64,0,0,1-.34,2.42l-0.12.28-0.11.26A8.54,8.54,0,0,0,64,48.61a7.62,7.62,0,0,0-.6-2.11h0Zm-13.19.72A14.36,14.36,0,0,1,49.83,44V39.27a29.7,29.7,0,0,1,.32-5.63c0.21-.82.49-0.82,0.58-0.82s0.6,0,.9,1.13A28.6,28.6,0,0,1,52,40c0,2.48,0,4.12-.1,4.89a4.6,4.6,0,0,1-.3,1.47L51.32,47a7.43,7.43,0,0,0-.74,2c-0.05-.34-0.15-0.86-0.37-1.78h0Zm16-24.47a10,10,0,0,0-2.63,2.39l-0.93,1.36c-0.08.12-.11,0.16-0.16,0.24,0-.09-0.09-0.19-0.15-0.32L61.5,24.79a5.76,5.76,0,0,0-2-2,5.4,5.4,0,0,0-2.73-.69,6.76,6.76,0,0,0-3.4.87,8.38,8.38,0,0,0-2.68,2.48l-0.75,1.35a1,1,0,0,1-.05.09c0-.16,0-0.35,0-0.6a15,15,0,0,0-.24-2.5,2.19,2.19,0,0,0-.68-1.28,2.15,2.15,0,0,0-1.39-.41,11.46,11.46,0,0,0-3,.5A19.77,19.77,0,0,0,41,23.94,9.69,9.69,0,0,0,38,26,3.88,3.88,0,0,0,37,28.61a4.27,4.27,0,0,0,1.11,2.66l0.45,0.58a3.91,3.91,0,0,1,.4,1.52c0.1,0.83.15,2.45,0.15,4.83,0,3.16-.05,5.29-0.15,6.34a4.39,4.39,0,0,1-.42,1.84L38.05,47a4.07,4.07,0,0,0,.73,6.19,10.1,10.1,0,0,0,5.22,1,8.69,8.69,0,0,0,4.92-1.1,3.82,3.82,0,0,0,1.58-2.42,3.42,3.42,0,0,0,1.63,2.6,10.26,10.26,0,0,0,5.07.93,9.87,9.87,0,0,0,5.14-1A3.64,3.64,0,0,0,63.93,51a3.61,3.61,0,0,0,1.74,2.28,9.81,9.81,0,0,0,5,1,9.54,9.54,0,0,0,5.09-1.07,3.93,3.93,0,0,0,1.84-3.55,5.6,5.6,0,0,0-.78-2.42,5,5,0,0,1-.63-2.29H74.87a6.27,6.27,0,0,0,.78,2.89,4.37,4.37,0,0,1,.63,1.82A2.66,2.66,0,0,1,75,52.07a8.54,8.54,0,0,1-4.39.87,8.77,8.77,0,0,1-4.32-.82,2.36,2.36,0,0,1-1.22-2.22,5.38,5.38,0,0,1,.51-2l0.11-.26,0.13-.31a10.81,10.81,0,0,0,.44-2.83c0.08-1.26.12-3.29,0.12-6A20.61,20.61,0,0,0,66,33.37c-0.45-1.54-1.33-1.86-2-1.86a2.12,2.12,0,0,0-2,1.66,13.06,13.06,0,0,0-.48,4.16c0,2.49,0,4.4.11,5.86A18.07,18.07,0,0,0,62,46.42s0.25,0.64.25,0.64a6.17,6.17,0,0,1,.59,2.55,2.72,2.72,0,0,1-1.15,2.51,8.86,8.86,0,0,1-4.44.81,9.32,9.32,0,0,1-4.4-.74A2.38,2.38,0,0,1,51.74,50a5.25,5.25,0,0,1,.74-2.34l0.35-.69A5.87,5.87,0,0,0,53.24,45c0.07-.8.11-2.49,0.11-5a29,29,0,0,0-.45-6.4c-0.46-1.74-1.43-2.1-2.17-2.1-0.52,0-1.45.24-1.85,1.8a30.18,30.18,0,0,0-.36,6V44a15.5,15.5,0,0,0,.42,3.52,12.61,12.61,0,0,1,.38,2,2.85,2.85,0,0,1-1.14,2.55,7.66,7.66,0,0,1-4.18.87,9,9,0,0,1-4.53-.84,2.65,2.65,0,0,1-1.21-2.46A2.7,2.7,0,0,1,39,47.88l0.59-.71a5.37,5.37,0,0,0,.67-2.51c0.11-1.1.16-3.21,0.16-6.46a49.2,49.2,0,0,0-.16-5,4.94,4.94,0,0,0-.63-2.12l-0.51-.65a3,3,0,0,1-.82-1.83,2.57,2.57,0,0,1,.6-1.77,8.73,8.73,0,0,1,2.66-1.73,18.17,18.17,0,0,1,3.26-1.29,10.17,10.17,0,0,1,2.63-.46,0.87,0.87,0,0,1,.55.12,1,1,0,0,1,.24.55,14.21,14.21,0,0,1,.21,2.25c0,0.63.08,2.29,1.23,2.29a1.79,1.79,0,0,0,1.35-1.24l0.66-1.19A7.2,7.2,0,0,1,54,24.06a5.61,5.61,0,0,1,2.76-.69,4.08,4.08,0,0,1,2.07.52,4.45,4.45,0,0,1,1.55,1.58L61.11,27c0.38,0.87.73,1.41,1.29,1.41a1.85,1.85,0,0,0,1.33-1.16L64.57,26a8.93,8.93,0,0,1,2.25-2.07,4.56,4.56,0,0,1,2.25-.53,4.77,4.77,0,0,1,4.28,2.13c1,1.5,1.51,3.8,1.51,6.84V44.91h1.31V32.33c0-3.3-.58-5.85-1.73-7.57a6.07,6.07,0,0,0-5.37-2.71,5.86,5.86,0,0,0-2.89.7"/><path class="cls-1" d="M89.66,33.77h0.43a4.5,4.5,0,0,0,2.26-.32,2.3,2.3,0,0,0,.38-1.62A4.48,4.48,0,0,0,92,29.24a2,2,0,0,0-1.75-1,2.31,2.31,0,0,0-1.92,1.17,4.81,4.81,0,0,0-.81,2.81,2.13,2.13,0,0,0,.25,1.26,1.83,1.83,0,0,0,1.28.29h0.55m8.78,5.63H89a1.94,1.94,0,0,0-1,.18,0.71,0.71,0,0,0-.25.62,5.69,5.69,0,0,0,1.58,3.86,4.78,4.78,0,0,0,3.65,1.78,5.79,5.79,0,0,0,3.29-1.24,7.29,7.29,0,0,1,2.1-1.24,1.45,1.45,0,0,1,1.25.83,3.91,3.91,0,0,1,.5,2.09,5.1,5.1,0,0,1-.7,2.4,8.77,8.77,0,0,1-1.94,2.37A11.74,11.74,0,0,1,94,53.25,10.26,10.26,0,0,1,90.1,54a10.14,10.14,0,0,1-8.42-4.42,17.8,17.8,0,0,1-3.33-11,20.53,20.53,0,0,1,.55-4.74,17.79,17.79,0,0,1,1.63-4.32,13.51,13.51,0,0,1,4.25-5,9.49,9.49,0,0,1,5.51-1.79,9.38,9.38,0,0,1,7.53,3.53,13.3,13.3,0,0,1,3,8.85,7.43,7.43,0,0,1-.54,3.31,1.87,1.87,0,0,1-1.79,1"/><path class="cls-2" d="M82.2,49.18A17.25,17.25,0,0,1,79,38.53a19.75,19.75,0,0,1,.53-4.58,17.32,17.32,0,0,1,1.57-4.17,13,13,0,0,1,4-4.74,8.87,8.87,0,0,1,5.14-1.67,8.7,8.7,0,0,1,7,3.3,12.76,12.76,0,0,1,2.8,8.43,6.72,6.72,0,0,1-.46,3,1.24,1.24,0,0,1-1.22.66H89a2.44,2.44,0,0,0-1.41.3A1.33,1.33,0,0,0,87,40.21a6.34,6.34,0,0,0,1.75,4.3,5.41,5.41,0,0,0,4.14,2,6.48,6.48,0,0,0,3.66-1.35A10,10,0,0,1,98.37,44a0.84,0.84,0,0,1,.64.51,3.36,3.36,0,0,1,.41,1.75,4.41,4.41,0,0,1-.61,2.09A8.09,8.09,0,0,1,97,50.56a11.12,11.12,0,0,1-3.29,2.08,9.69,9.69,0,0,1-3.62.69,9.45,9.45,0,0,1-7.89-4.16h0ZM84.41,24a14.27,14.27,0,0,0-4.46,5.21,18.3,18.3,0,0,0-1.69,4.48,20.93,20.93,0,0,0-.57,4.89A18.51,18.51,0,0,0,81.16,50a10.81,10.81,0,0,0,8.94,4.68,11,11,0,0,0,4.11-.79,12.62,12.62,0,0,0,3.67-2.32A9.42,9.42,0,0,0,100,49a5.75,5.75,0,0,0,.77-2.71,4.61,4.61,0,0,0-.6-2.42,2.07,2.07,0,0,0-1.81-1.14c-0.29,0-.71.11-2.48,1.36a5.17,5.17,0,0,1-2.91,1.11,4.11,4.11,0,0,1-3.16-1.56,5,5,0,0,1-1.42-3.43,0.8,0.8,0,0,0,0-.09A1.84,1.84,0,0,1,89,40.06h9.45a2.53,2.53,0,0,0,2.38-1.34,8,8,0,0,0,.62-3.62,14,14,0,0,0-3.11-9.28,10.05,10.05,0,0,0-8-3.76A10.2,10.2,0,0,0,84.41,24"/><path class="cls-2" d="M88.31,33a3.57,3.57,0,0,1-.07-0.8,4.13,4.13,0,0,1,.69-2.44,1.7,1.7,0,0,1,1.38-.89,1.4,1.4,0,0,1,1.21.72,3.87,3.87,0,0,1,.57,2.21A2.21,2.21,0,0,1,91.91,33a5.31,5.31,0,0,1-1.82.16h-1a1.78,1.78,0,0,1-.81-0.1h0Zm-0.46-4a5.47,5.47,0,0,0-.92,3.19,2.54,2.54,0,0,0,.41,1.68,2.21,2.21,0,0,0,1.78.53h1c1.87,0,2.4-.24,2.69-0.49a2.72,2.72,0,0,0,.6-2.11,5.15,5.15,0,0,0-.8-3,2.71,2.71,0,0,0-2.28-1.28A2.94,2.94,0,0,0,87.85,29"/><path class="cls-1" d="M100,49.14a3.76,3.76,0,0,1,1.29-2.84l0.26-.25a4.06,4.06,0,0,0,.56-0.65,1.69,1.69,0,0,0,.23-0.6,28.18,28.18,0,0,0,.27-3.52q0.1-2.72.1-6.39V34a5.36,5.36,0,0,0-.14-1.59,1.87,1.87,0,0,0-.7-0.75,5.63,5.63,0,0,1-1.38-1.35,2.56,2.56,0,0,1-.39-1.41,2.94,2.94,0,0,1,.56-1.67,5.62,5.62,0,0,1,1.63-1.5,17.27,17.27,0,0,1,4.28-2,14.21,14.21,0,0,1,4.4-.77,1.59,1.59,0,0,1,1.08.33,1.64,1.64,0,0,1,.45,1.08c0,0.37.09,0.86,0.13,1.47,0.05,1,.21,1.5.47,1.5a1,1,0,0,0,.6-0.91,8.28,8.28,0,0,1,.33-1,4.48,4.48,0,0,1,1.52-1.87,3.84,3.84,0,0,1,2.2-.63,5,5,0,0,1,4.12,2,8.29,8.29,0,0,1,1.58,5.25A9.37,9.37,0,0,1,122,35.58a4.29,4.29,0,0,1-3.67,2.12,4,4,0,0,1-2.11-.6,4.83,4.83,0,0,1-1.61-1.64,5.84,5.84,0,0,1-.5-1.22,1,1,0,0,0-.64-0.86c-0.29,0-.49.44-0.6,1.3a45.56,45.56,0,0,0-.17,5,27.12,27.12,0,0,0,.29,5.08,2.84,2.84,0,0,0,1.11,1.7l0.39,0.25a3.4,3.4,0,0,1,1.74,2.9,3.18,3.18,0,0,1-1.83,3.07q-1.83.92-6.18,0.93a13.14,13.14,0,0,1-6.13-1.12A3.58,3.58,0,0,1,100,49.14"/><path class="cls-2" d="M115.18,23a5.17,5.17,0,0,0-1.75,2.13l-0.16.46c0-.37-0.11-1.33-0.11-1.33a2.27,2.27,0,0,0-.66-1.49,2.2,2.2,0,0,0-1.52-.51,14.88,14.88,0,0,0-4.6.8,18.16,18.16,0,0,0-4.43,2.13,6.11,6.11,0,0,0-1.8,1.68,3.59,3.59,0,0,0-.68,2,3.22,3.22,0,0,0,.49,1.76,6.09,6.09,0,0,0,1.54,1.53,1.27,1.27,0,0,1,.48.47,4.69,4.69,0,0,1,.1,1.35v0.88L102,41.24a26.55,26.55,0,0,1-.25,3.42l-0.15.38-0.47.53-0.24.23a4.42,4.42,0,0,0-1.5,3.33h1.31a3.11,3.11,0,0,1,1.08-2.37l0.28-.27,0.65-.76,0.33-.84a28.48,28.48,0,0,0,.28-3.62l0.1-6.41V34a5,5,0,0,0-.19-1.83,2.41,2.41,0,0,0-.93-1A5.08,5.08,0,0,1,101.05,30a1.89,1.89,0,0,1-.29-1.05,2.26,2.26,0,0,1,.45-1.3,5,5,0,0,1,1.44-1.32,16.56,16.56,0,0,1,4.12-2,13.48,13.48,0,0,1,4.19-.74,1,1,0,0,1,.65.16,1.1,1.1,0,0,1,.24.66L112,25.84c0,0.68.11,2.11,1.12,2.11,0.85,0,1.14-1.05,1.23-1.4l0.29-.88a3.86,3.86,0,0,1,1.29-1.58,3.19,3.19,0,0,1,1.83-.51,4.32,4.32,0,0,1,3.61,1.77,7.64,7.64,0,0,1,1.45,4.84,8.77,8.77,0,0,1-1.33,5A3.65,3.65,0,0,1,118.33,37a3.25,3.25,0,0,1-1.76-.5,4.12,4.12,0,0,1-1.4-1.42,5,5,0,0,1-.44-1.08,1.6,1.6,0,0,0-1.27-1.32c-1,0-1.19,1.36-1.25,1.87a44.52,44.52,0,0,0-.18,5.08,27,27,0,0,0,.31,5.24A3.47,3.47,0,0,0,113.7,47l0.42,0.27a2.77,2.77,0,0,1,1.43,2.34,2.53,2.53,0,0,1-1.47,2.49,14.37,14.37,0,0,1-5.88.85,12.58,12.58,0,0,1-5.81-1,2.94,2.94,0,0,1-1.72-2.75H99.35a4.22,4.22,0,0,0,2.4,3.9,13.61,13.61,0,0,0,6.44,1.2c3,0,5.15-.32,6.47-1a3.86,3.86,0,0,0,2.19-3.66,4,4,0,0,0-2-3.45l-0.38-.24a2.18,2.18,0,0,1-.84-1.32,25,25,0,0,1-.27-4.92,46,46,0,0,1,.17-4.9c0-.07,0-0.12,0-0.18a5.82,5.82,0,0,0,.52,1.22,5.41,5.41,0,0,0,1.82,1.85,4.61,4.61,0,0,0,2.45.7,4.94,4.94,0,0,0,4.22-2.4,10.08,10.08,0,0,0,1.55-5.77,8.91,8.91,0,0,0-1.73-5.65,5.65,5.65,0,0,0-4.64-2.28,4.5,4.5,0,0,0-2.56.74"/><path class="cls-1" d="M130.14,21.4a4.71,4.71,0,0,1-3.36-1.08,4.17,4.17,0,0,1-1.15-3.19,4.64,4.64,0,0,1,2.11-3.8A8.48,8.48,0,0,1,133,11.75a5.61,5.61,0,0,1,3.58,1,3.53,3.53,0,0,1,1.26,2.91,5,5,0,0,1-2.19,4.07,8.77,8.77,0,0,1-5.47,1.66m8,4.93V43.76a6.6,6.6,0,0,0,.15,1.65,3.43,3.43,0,0,0,.71,1.21L139.27,47a3.84,3.84,0,0,1,1.15,2.58,3.35,3.35,0,0,1-1.84,3.1,11.44,11.44,0,0,1-5.5,1,12,12,0,0,1-5.73-1.12,3.44,3.44,0,0,1-2-3.14,3.81,3.81,0,0,1,1.27-2.68h0l0.25-.25a2.54,2.54,0,0,0,.7-1.12,13,13,0,0,0,.22-2.25c0-1.06.06-2.78,0.06-5.16V36.75a17.7,17.7,0,0,0-.25-3.7,3,3,0,0,0-1-1.59l-0.25-.19a3,3,0,0,1-1.26-2.45,3,3,0,0,1,.62-1.9A6.88,6.88,0,0,1,128,25.33a25.27,25.27,0,0,1,4.76-1.9,15.18,15.18,0,0,1,4-.71,1.43,1.43,0,0,1,1.12.33,2.93,2.93,0,0,1,.28,1.61v1.68"/><path class="cls-2" d="M127.66,52A2.82,2.82,0,0,1,126,49.44a3.18,3.18,0,0,1,1.08-2.22s0.25-.24.25-0.24a3.2,3.2,0,0,0,.89-1.47,13.25,13.25,0,0,0,.23-2.35L128.5,38V36.75a17.89,17.89,0,0,0-.27-3.86A3.69,3.69,0,0,0,127.07,31l-0.28-.22a2.35,2.35,0,0,1-1-1.93,2.29,2.29,0,0,1,.47-1.49,6.22,6.22,0,0,1,2-1.42,25.07,25.07,0,0,1,4.64-1.86,14.84,14.84,0,0,1,3.79-.68,1.06,1.06,0,0,1,.62.11,3.37,3.37,0,0,1,.12,1.18V43.76a7.19,7.19,0,0,0,.18,1.83,3.94,3.94,0,0,0,.84,1.45l0.3,0.36a3.21,3.21,0,0,1,1,2.15,2.69,2.69,0,0,1-1.51,2.53,10.9,10.9,0,0,1-5.17,1,11.53,11.53,0,0,1-5.42-1h0Zm4.9-29.22a26.58,26.58,0,0,0-4.89,2,7.42,7.42,0,0,0-2.45,1.77,3.6,3.6,0,0,0-.76,2.31,3.65,3.65,0,0,0,1.52,3L126.21,32a2.33,2.33,0,0,1,.75,1.25,16.55,16.55,0,0,1,.23,3.54V38l-0.06,5.13a11.09,11.09,0,0,1-.21,2.11,1.79,1.79,0,0,1-.53.83l-0.25.25a4.41,4.41,0,0,0-1.47,3.13A4.08,4.08,0,0,0,127,53.16a12.77,12.77,0,0,0,6.05,1.18,11.92,11.92,0,0,0,5.82-1.12,4,4,0,0,0,2.17-3.67,4.48,4.48,0,0,0-1.31-3l-0.31-.36a2.62,2.62,0,0,1-.56-0.94,5.64,5.64,0,0,1-.13-1.47V24.65a3.21,3.21,0,0,0-.42-2,2,2,0,0,0-1.62-.57,15.58,15.58,0,0,0-4.15.73"/><path class="cls-2" d="M127.23,19.84a3.55,3.55,0,0,1-.94-2.72,4,4,0,0,1,1.85-3.27A7.86,7.86,0,0,1,133,12.41a5,5,0,0,1,3.17.87,2.87,2.87,0,0,1,1,2.39,4.31,4.31,0,0,1-1.93,3.56,8.18,8.18,0,0,1-5.08,1.52,4.11,4.11,0,0,1-2.91-.91h0Zm0.12-7A5.27,5.27,0,0,0,125,17.13a4.83,4.83,0,0,0,1.35,3.67,5.36,5.36,0,0,0,3.81,1.26A9.49,9.49,0,0,0,136,20.27a5.61,5.61,0,0,0,2.44-4.6,4.17,4.17,0,0,0-1.5-3.41,6.22,6.22,0,0,0-4-1.16,9.16,9.16,0,0,0-5.61,1.71"/><path class="cls-1" d="M140.89,38.35a20.7,20.7,0,0,1,.57-5,14.46,14.46,0,0,1,1.74-4.16,14,14,0,0,1,4.63-4.82,11.23,11.23,0,0,1,6-1.66,9.63,9.63,0,0,1,6.82,2.43,8.09,8.09,0,0,1,2.62,6.21A7.15,7.15,0,0,1,162,35.65a3.71,3.71,0,0,1-3.07,1.75,3.15,3.15,0,0,1-1.92-.63,5.12,5.12,0,0,1-1.45-1.86,13,13,0,0,1-.55-1.39q-0.75-2.36-2-2.36a1.9,1.9,0,0,0-1.66,1.1,5.64,5.64,0,0,0-.64,2.86,9.45,9.45,0,0,0,1.61,5.44q1.6,2.37,3.68,2.37a6.36,6.36,0,0,0,2.88-.9,6.41,6.41,0,0,1,2.24-.9,1.83,1.83,0,0,1,1.53,1,4.59,4.59,0,0,1,.64,2.47,7.55,7.55,0,0,1-.93,3.59,9.51,9.51,0,0,1-2.58,3,13.48,13.48,0,0,1-3.49,2,10.15,10.15,0,0,1-3.6.68,9.3,9.3,0,0,1-4.45-1.13,11.83,11.83,0,0,1-3.74-3.21,16.48,16.48,0,0,1-2.66-5.11,20.14,20.14,0,0,1-.89-6.1"/><path class="cls-2" d="M147.49,23.81a14.72,14.72,0,0,0-4.86,5,15.11,15.11,0,0,0-1.81,4.34,21.4,21.4,0,0,0-.59,5.15h1.31a20,20,0,0,1,.55-4.83,13.9,13.9,0,0,1,1.65-4,13.46,13.46,0,0,1,4.42-4.61,10.62,10.62,0,0,1,5.62-1.57,9,9,0,0,1,6.37,2.25,7.42,7.42,0,0,1,2.41,5.74,6.55,6.55,0,0,1-1.13,3.91,3.05,3.05,0,0,1-2.54,1.47,2.48,2.48,0,0,1-1.53-.5,4.46,4.46,0,0,1-1.25-1.63L155.6,33.3c-0.59-1.86-1.49-2.8-2.65-2.8a2.52,2.52,0,0,0-2.22,1.43,6.31,6.31,0,0,0-.73,3.19,10.17,10.17,0,0,0,1.72,5.81c1.19,1.76,2.61,2.65,4.22,2.65a6.88,6.88,0,0,0,3.2-1,5.65,5.65,0,0,1,1.92-.82,1.14,1.14,0,0,1,1,.71,3.92,3.92,0,0,1,.54,2.12,6.93,6.93,0,0,1-.85,3.28,8.86,8.86,0,0,1-2.41,2.82A12.79,12.79,0,0,1,156,52.59a9.53,9.53,0,0,1-3.37.64,8.77,8.77,0,0,1-4.14-1,11.26,11.26,0,0,1-3.53-3,15.91,15.91,0,0,1-2.55-4.91,19.61,19.61,0,0,1-.86-5.9h-1.31a20.69,20.69,0,0,0,.92,6.29A17.22,17.22,0,0,0,143.92,50a12.47,12.47,0,0,0,3.95,3.39,10,10,0,0,0,4.76,1.21,10.8,10.8,0,0,0,3.84-.73,14.27,14.27,0,0,0,3.65-2.07,10.29,10.29,0,0,0,2.76-3.24,8.22,8.22,0,0,0,1-3.89,5.25,5.25,0,0,0-.74-2.82A2.44,2.44,0,0,0,161,40.48a5.81,5.81,0,0,0-2.55,1,5.72,5.72,0,0,1-2.57.82c-1.16,0-2.19-.68-3.13-2.08a8.88,8.88,0,0,1-1.49-5.08,5,5,0,0,1,.55-2.53,1.21,1.21,0,0,1,1.09-.77c0.66,0,1.13,1,1.41,1.89l0.59,1.5a5.71,5.71,0,0,0,1.64,2.08,3.75,3.75,0,0,0,2.31.76,4.33,4.33,0,0,0,3.6-2,7.83,7.83,0,0,0,1.38-4.68,8.77,8.77,0,0,0-2.82-6.7,10.3,10.3,0,0,0-7.26-2.6,11.93,11.93,0,0,0-6.3,1.76"/><path class="cls-1" d="M175.44,41.47a2.55,2.55,0,0,0-.18-1.21,1.1,1.1,0,0,0-.9-0.25,1.74,1.74,0,0,0-1.57.93,5.3,5.3,0,0,0-.55,2.67,5.72,5.72,0,0,0,.42,2.47,1.34,1.34,0,0,0,1.24.86,1.21,1.21,0,0,0,1.21-.94,18.71,18.71,0,0,0,.32-4.54m0-5.69c0-.11,0-0.27,0-0.47,0-1.08.06-1.85,0.06-2.33a13.48,13.48,0,0,0-.43-4,1.5,1.5,0,0,0-1.4-1.22c-0.72,0-1.54.79-2.46,2.37l-0.37.61A8.68,8.68,0,0,1,169.07,33a3,3,0,0,1-1.87.69,2.22,2.22,0,0,1-1.86-1,4.35,4.35,0,0,1-.75-2.62,6.23,6.23,0,0,1,3-5.2A12.59,12.59,0,0,1,175,22.71q5,0,7.59,2.56t2.58,7.5c0,0.86,0,2-.06,3.47s-0.06,2.46-.06,3v0.85a22.77,22.77,0,0,0,.22,4.27,1.53,1.53,0,0,0,1,1.08,1.86,1.86,0,0,1,1,.73,2.3,2.3,0,0,1,.33,1.26,6.09,6.09,0,0,1-2.13,4.38,6.82,6.82,0,0,1-4.88,2.06A3.83,3.83,0,0,1,179,53.6a3.06,3.06,0,0,1-1.12-.9l-0.7-1a2.08,2.08,0,0,0-1-1,1.31,1.31,0,0,0-.78.52l-0.33.33a8,8,0,0,1-2.27,1.6,6.4,6.4,0,0,1-2.49.45A6.64,6.64,0,0,1,165,51.16a9.65,9.65,0,0,1-2-6.38A9.38,9.38,0,0,1,165.62,38a8.69,8.69,0,0,1,6.52-2.73,9.68,9.68,0,0,1,1.47.12c0.55,0.08,1.16.2,1.84,0.37"/><path class="cls-2" d="M175.57,52h0Zm-4.11-21h0Zm-5.59,1.2a3.74,3.74,0,0,1-.62-2.24,5.56,5.56,0,0,1,2.69-4.66,12,12,0,0,1,7.1-2c3.14,0,5.54.8,7.13,2.37s2.39,3.94,2.39,7l-0.06,3.45-0.06,3v0.85a19.35,19.35,0,0,0,.25,4.45,2.17,2.17,0,0,0,1.45,1.51,1.18,1.18,0,0,1,.61.46,1.64,1.64,0,0,1,.22.9A5.41,5.41,0,0,1,185,51.36a6.16,6.16,0,0,1-4.43,1.88,3,3,0,0,1-1.32-.23,2.41,2.41,0,0,1-.88-0.72l-0.67-.93c-0.62-1-1-1.31-1.52-1.31a1.77,1.77,0,0,0-1.25.73l-0.29.28a7.15,7.15,0,0,1-2.09,1.48,5.6,5.6,0,0,1-2.23.4,5.94,5.94,0,0,1-4.86-2.19,9,9,0,0,1-1.87-6,8.66,8.66,0,0,1,2.45-6.31,8,8,0,0,1,6.05-2.53l1.37,0.11L176,36.56l0.09-.71,0-.5s0.06-2.38.06-2.38a13.81,13.81,0,0,0-.46-4.23,2.1,2.1,0,0,0-2-1.66c-1,0-2,.86-3,2.7l-0.35.58a8,8,0,0,1-1.69,2.1,2.3,2.3,0,0,1-1.47.55,1.58,1.58,0,0,1-1.33-.76h0Zm1.32-8A6.88,6.88,0,0,0,163.94,30a5.06,5.06,0,0,0,.87,3,2.86,2.86,0,0,0,2.39,1.29,3.63,3.63,0,0,0,2.28-.83,9.14,9.14,0,0,0,2-2.44l0.37-.61c1.11-1.9,1.73-2,1.89-2s0.51,0,.78.77a13,13,0,0,1,.39,3.8s0,1.56-.05,2l-1.14-.23-1.57-.13a9.34,9.34,0,0,0-7,2.93,10,10,0,0,0-2.82,7.22,10.34,10.34,0,0,0,2.17,6.8,7.28,7.28,0,0,0,5.87,2.66,7,7,0,0,0,2.74-.5A8.36,8.36,0,0,0,175.57,52l0.35-.35a3,3,0,0,1,.25-0.23,6.09,6.09,0,0,1,.48.65l0.71,1a3.76,3.76,0,0,0,1.37,1.1,4.41,4.41,0,0,0,1.87.36A7.51,7.51,0,0,0,186,52.3a6.75,6.75,0,0,0,2.33-4.86,2.91,2.91,0,0,0-.44-1.61,2.51,2.51,0,0,0-1.28-1,0.87,0.87,0,0,1-.62-0.63,20.48,20.48,0,0,1-.2-4.09V39.27l0.06-3,0.06-3.49c0-3.45-.93-6.13-2.77-8s-4.55-2.75-8.05-2.75a13.26,13.26,0,0,0-7.86,2.23"/><path class="cls-2" d="M173.25,45.81a5.12,5.12,0,0,1-.35-2.19,4.67,4.67,0,0,1,.46-2.34,1.08,1.08,0,0,1,1-.61,1.59,1.59,0,0,1,.37,0,3.92,3.92,0,0,1,0,.77,17.31,17.31,0,0,1-.29,4.33,0.57,0.57,0,0,1-.6.49,0.68,0.68,0,0,1-.65-0.49h0Zm-1-5.19a5.83,5.83,0,0,0-.65,3,6.29,6.29,0,0,0,.49,2.77,2,2,0,0,0,1.82,1.22,1.87,1.87,0,0,0,1.83-1.38c0.15-.44.36-1.43,0.36-4.76a2.84,2.84,0,0,0-.29-1.59,1.69,1.69,0,0,0-1.44-.53,2.39,2.39,0,0,0-2.13,1.25"/><path class="cls-1" d="M190.15,30.15h-1l-1.9-12.8c0-.29-0.07-0.5-0.07-0.63s0-.26,0-0.38a4.07,4.07,0,0,1,.68-2.44,2.08,2.08,0,0,1,1.75-.94,2.13,2.13,0,0,1,1.8.94,4,4,0,0,1,.69,2.44c0,0.12,0,.26,0,0.38s0,0.34-.07.63l-1.9,12.8"/><path class="cls-2" d="M187.87,16.69V16.34a3.47,3.47,0,0,1,.55-2.06,1.42,1.42,0,0,1,1.22-.66,1.49,1.49,0,0,1,1.28.67,3.4,3.4,0,0,1,.56,2.05v0.35l-0.06.57L189.67,29l-1.74-11.69-0.06-.57h0Zm-0.52-3.18a4.69,4.69,0,0,0-.8,2.83v0.42l0.08,0.69,2,13.37h1.53V30.15l0.64,0.1,1.9-12.81,0.07-.7V16.34A4.66,4.66,0,0,0,192,13.5a2.82,2.82,0,0,0-2.33-1.2,2.73,2.73,0,0,0-2.28,1.21"/><path class="cls-1" d="M211.46,44A10.3,10.3,0,0,1,209,51.13a8.22,8.22,0,0,1-6.43,2.76,9.57,9.57,0,0,1-3-.5c-1-.33-1.55-0.5-1.62-0.5a2.52,2.52,0,0,0-1,.33,2.6,2.6,0,0,1-1,.32c-0.85,0-1.73-.86-2.65-2.59a11.31,11.31,0,0,1-1.39-5.4,5.63,5.63,0,0,1,.45-2.55,1.44,1.44,0,0,1,1.35-.85q1.19,0,2.63,2.07c0.12,0.19.22,0.33,0.29,0.42a12.22,12.22,0,0,0,1.81,2.11,2.38,2.38,0,0,0,1.5.7,1,1,0,0,0,.79-0.37,1.28,1.28,0,0,0,.33-0.87c0-1-.69-1.87-2.06-2.7-0.48-.28-0.85-0.5-1.12-0.69a12.29,12.29,0,0,1-4.07-4.35,11.52,11.52,0,0,1-1.4-5.62,10.39,10.39,0,0,1,2.52-7A7.72,7.72,0,0,1,201,22.92a7.85,7.85,0,0,1,2.09.35,7.93,7.93,0,0,0,1.58.35,2.62,2.62,0,0,0,1.22-.45,2.67,2.67,0,0,1,1.09-.45c0.86,0,1.74.82,2.66,2.45a10.09,10.09,0,0,1,1.38,5,3.94,3.94,0,0,1-.67,2.39,2.09,2.09,0,0,1-1.75.89,2.3,2.3,0,0,1-1.17-.32,4.24,4.24,0,0,1-1.15-1c-0.19-.24-0.46-0.59-0.8-1-0.91-1.25-1.69-1.88-2.36-1.88a1.12,1.12,0,0,0-.88.44,1.66,1.66,0,0,0-.37,1.08c0,0.79.84,1.72,2.51,2.79,0.5,0.31.9,0.57,1.19,0.77a14.75,14.75,0,0,1,4.53,4.43A10.4,10.4,0,0,1,211.46,44"/><path class="cls-2" d="M205.58,22.6a2,2,0,0,1-.88.37,7.82,7.82,0,0,1-1.4-.33,8.51,8.51,0,0,0-2.27-.38,8.39,8.39,0,0,0-6.55,3.17,11.05,11.05,0,0,0-2.68,7.43,12.23,12.23,0,0,0,1.48,5.93,13.07,13.07,0,0,0,4.28,4.58l1.16,0.71c1.14,0.69,1.73,1.41,1.73,2.13a0.63,0.63,0,0,1-.16.45,0.37,0.37,0,0,1-.3.14,1.81,1.81,0,0,1-1.07-.54,11.16,11.16,0,0,1-1.71-2l-0.27-.39c-1.12-1.6-2.16-2.37-3.18-2.37a2.08,2.08,0,0,0-1.93,1.21,6.12,6.12,0,0,0-.53,2.86,12,12,0,0,0,1.46,5.7c1.06,2,2.11,2.94,3.23,2.94a3,3,0,0,0,1.29-.39,2.35,2.35,0,0,1,.63-0.25L199.36,54a10.3,10.3,0,0,0,3.2.53,8.88,8.88,0,0,0,6.92-3A11,11,0,0,0,212.11,44H210.8a9.69,9.69,0,0,1-2.3,6.67,7.55,7.55,0,0,1-5.94,2.54,8.82,8.82,0,0,1-2.79-.47,7.81,7.81,0,0,0-1.83-.54,2.92,2.92,0,0,0-1.25.4,2,2,0,0,1-.71.25c-0.26,0-1-.22-2.08-2.24a10.65,10.65,0,0,1-1.31-5.08,5,5,0,0,1,.38-2.25,0.8,0.8,0,0,1,.77-0.5c0.31,0,1,.23,2.1,1.79l0.3,0.43A12.71,12.71,0,0,0,198,47.25a3,3,0,0,0,1.92.86,1.66,1.66,0,0,0,1.29-.6,1.93,1.93,0,0,0,.49-1.31c0-1.21-.8-2.32-2.37-3.26l-1.09-.67a11.65,11.65,0,0,1-3.86-4.12,10.92,10.92,0,0,1-1.32-5.3,9.78,9.78,0,0,1,2.36-6.58,7,7,0,0,1,5.56-2.7,7.28,7.28,0,0,1,1.91.32,7,7,0,0,0,1.76.38,3.2,3.2,0,0,0,1.55-.54,2.48,2.48,0,0,1,.77-0.37c0.33,0,1,.28,2.08,2.12a9.43,9.43,0,0,1,1.3,4.66,3.33,3.33,0,0,1-.54,2,1.43,1.43,0,0,1-1.23.63,1.61,1.61,0,0,1-.85-0.23,3.73,3.73,0,0,1-1-.88l-0.78-1c-1.05-1.46-2-2.14-2.89-2.14a1.76,1.76,0,0,0-1.39.68,2.26,2.26,0,0,0-.52,1.5c0,1.06.89,2.12,2.81,3.34l1.17,0.76A14.08,14.08,0,0,1,209.56,39a9.8,9.8,0,0,1,1.23,5h1.31a11,11,0,0,0-1.42-5.69A15.37,15.37,0,0,0,206,33.69l-1.21-.79c-2-1.26-2.19-2-2.19-2.23a1,1,0,0,1,.22-0.66,0.46,0.46,0,0,1,.38-0.2c0.2,0,.79.15,1.83,1.6l0.82,1.08a5,5,0,0,0,1.34,1.19,3,3,0,0,0,1.49.41,2.77,2.77,0,0,0,2.28-1.16,4.56,4.56,0,0,0,.8-2.78,10.71,10.71,0,0,0-1.47-5.31c-1-1.87-2.11-2.79-3.23-2.79a3.1,3.1,0,0,0-1.43.54"/><polyline class="cls-3" points="129.84 1.05 135.56 10.25 147.19 8.66 139.17 16.36 144.46 25.75 133.78 21.31 125.41 28.71 126.84 18.27 116.38 13.44 127.93 11.43 129.84 1.05"/><path class="cls-2" d="M128,11.75l0.22,0L130,2l5.38,8.65,10.85-1.48-7.48,7.17,4.95,8.79-10-4.15-7.87,6.94c0.2-1.47,1.34-9.81,1.34-9.81l-9.73-4.48L128,11.75h0Zm1.85-10.7L129.51,1l-1.87,10.15L115.28,13.3l11.2,5.16L125,29.54l8.88-7.85,11.37,4.73-5.63-10,8.57-8.22L135.72,9.9l-5.6-9-0.28.17"/><path class="cls-2" d="M128.07,12.26l0.45-.07s1.16-6.31,1.58-8.61l4.74,7.63,9.45-1.29-6.52,6.24,4.33,7.68-8.73-3.63-6.91,6.11c0.33-2.37,1.18-8.62,1.18-8.62l-8.44-3.89,8.87-1.55h0Zm1.05-10.58L127.39,11l-12.57,2.18,11.38,5.25-1.53,11.15,8.94-7.9,11.49,4.78L139.42,16.4l8.69-8.33L135.5,9.79,129.42,0l-0.3,1.67"/><path class="cls-1" d="M1.51,77.63a1.67,1.67,0,0,1,1-1.57,7.93,7.93,0,0,0,1.11-.61c0.31-.37.55-1.63,0.72-3.78s0.25-5.08.25-8.8a9.39,9.39,0,0,0-.24-2.67,2.22,2.22,0,0,0-.89-1.09L3.17,58.9a2.36,2.36,0,0,1-1.36-1.84,1.87,1.87,0,0,1,1.35-1.75,11.43,11.43,0,0,1,4.15-.56,21.41,21.41,0,0,1,2.81.16,4.75,4.75,0,0,1,1.62.41,3.68,3.68,0,0,1,.73.82q0.43,0.62,1.72,2.77,0.7,1.19,1.7,3.06,1.66,3.1,2.46,3.1c0.55,0,1.34-1,2.34-3.11,0.73-1.52,1.36-2.77,1.91-3.75a22.8,22.8,0,0,1,1.23-2,3.86,3.86,0,0,1,.87-0.92A3.67,3.67,0,0,1,26,54.84a24.49,24.49,0,0,1,3.13-.13,11,11,0,0,1,4.14.55A1.82,1.82,0,0,1,34.51,57a1.61,1.61,0,0,1-1,1.39,2.65,2.65,0,0,0-.45.3,4.14,4.14,0,0,0-.79,2.34A46.23,46.23,0,0,0,32,66.58c0,2.33.06,4.26,0.19,5.79a7.75,7.75,0,0,0,.48,2.69,1.84,1.84,0,0,0,.47.3,2.18,2.18,0,0,1,1.38,1.9A1.88,1.88,0,0,1,33,79.06a18.29,18.29,0,0,1-5.31.53A16.68,16.68,0,0,1,22.53,79a1.91,1.91,0,0,1-1.45-1.84,1.82,1.82,0,0,1,1-1.57,2.81,2.81,0,0,0,.56-0.43,3,3,0,0,0,.52-1.51,33.58,33.58,0,0,0,.14-3.78,2.3,2.3,0,0,0-.2-1.11,0.68,0.68,0,0,0-.63-0.36c-0.44,0-1,.71-1.56,2.13-0.21.5-.39,0.9-0.53,1.18-0.31.68-.71,1.58-1.21,2.72q-2,4.46-2.93,4.46A1.86,1.86,0,0,1,15,77.87a49.94,49.94,0,0,1-2.66-5.39c-0.25-.56-0.56-1.3-0.92-2.22-0.56-1.44-1-2.16-1.46-2.16a0.76,0.76,0,0,0-.61.79,25.35,25.35,0,0,0-.16,3.76,9.42,9.42,0,0,0,.19,2.45,1.38,1.38,0,0,0,.72.76L10.31,76a1.83,1.83,0,0,1,1.26,1.6,1.58,1.58,0,0,1-1.13,1.55,11.66,11.66,0,0,1-3.9.46,11.73,11.73,0,0,1-3.87-.46,1.56,1.56,0,0,1-1.16-1.5"/><path class="cls-2" d="M25.93,54.19a4.08,4.08,0,0,0-1.56.53,4.29,4.29,0,0,0-1,1.09L22,57.88l-1.93,3.79c-1.06,2.18-1.59,2.63-1.75,2.73-0.15-.1-0.71-0.56-1.88-2.74l-1.72-3.07L13,55.76a3.94,3.94,0,0,0-.9-1,5.08,5.08,0,0,0-1.9-.52,21.58,21.58,0,0,0-2.91-.17,11.67,11.67,0,0,0-4.4.62,2.47,2.47,0,0,0-1.76,2.35,3,3,0,0,0,1.66,2.4l0.33,0.22a1.5,1.5,0,0,1,.63.75A8.56,8.56,0,0,1,4,62.87c0,3.68-.08,6.63-0.25,8.75A11.07,11.07,0,0,1,3.2,75l-0.93.49a2.32,2.32,0,0,0-1.4,2.16H2.17a1,1,0,0,1,.68-1,4,4,0,0,0,1.33-.77c0.29-.35.62-1.12,0.86-4.15,0.17-2.16.25-5.14,0.25-8.86A9.52,9.52,0,0,0,5,60a2.83,2.83,0,0,0-1.15-1.41l-0.33-.22a1.94,1.94,0,0,1-1.06-1.29,1.2,1.2,0,0,1,1-1.14,10.78,10.78,0,0,1,3.9-.52,21.74,21.74,0,0,1,2.73.15,3.76,3.76,0,0,1,1.36.32,2.77,2.77,0,0,1,.54.64l1.7,2.74,1.69,3c1.61,3,2.41,3.44,3,3.44,0.89,0,1.74-1,2.93-3.48l1.89-3.71,1.2-1.94a3.11,3.11,0,0,1,.69-0.75,3,3,0,0,1,1.07-.34,23.12,23.12,0,0,1,3-.12,10.15,10.15,0,0,1,3.87.49A1.19,1.19,0,0,1,33.85,57a1,1,0,0,1-.7.82l-0.58.4a4.57,4.57,0,0,0-1,2.73,47.12,47.12,0,0,0-.25,5.61c0,2.35.07,4.31,0.19,5.84,0.18,2.17.4,2.73,0.61,3,0,0,.69.49,0.69,0.49a1.48,1.48,0,0,1,1,1.32,1.22,1.22,0,0,1-1.06,1.18,17.81,17.81,0,0,1-5.09.49,16.23,16.23,0,0,1-4.94-.5,1.25,1.25,0,0,1-1-1.23,1.16,1.16,0,0,1,.72-1l0.73-.57a3.42,3.42,0,0,0,.67-1.84A33.33,33.33,0,0,0,24,69.9a2.89,2.89,0,0,0-.29-1.43,1.32,1.32,0,0,0-1.2-.69c-0.77,0-1.42.75-2.17,2.52l-1.73,3.9c-1.63,3.66-2.3,4-2.39,4.08a2.11,2.11,0,0,1-.7-0.77,52,52,0,0,1-2.61-5.29L12,70c-0.71-1.83-1.3-2.57-2.06-2.57a1.33,1.33,0,0,0-1.25,1.31,22.27,22.27,0,0,0-.17,3.89,8.19,8.19,0,0,0,.23,2.68,2,2,0,0,0,1,1.12L10,76.57a1.14,1.14,0,0,1,.9,1,0.93,0.93,0,0,1-.72.94,10.57,10.57,0,0,1-3.65.41,11.29,11.29,0,0,1-3.63-.41,0.9,0.9,0,0,1-.74-0.89H0.86a2.17,2.17,0,0,0,1.57,2.11,12.09,12.09,0,0,0,4.11.5,12.06,12.06,0,0,0,4.14-.5,2.21,2.21,0,0,0,1.54-2.16,2.42,2.42,0,0,0-1.64-2.19l-0.21-.11A0.76,0.76,0,0,1,10,74.86a8.42,8.42,0,0,1-.14-2.22A23.44,23.44,0,0,1,10,69a0.86,0.86,0,0,1,0-.1,6.45,6.45,0,0,1,.78,1.57l0.93,2.26a52.31,52.31,0,0,0,2.72,5.48,2.39,2.39,0,0,0,1.84,1.35c0.83,0,1.75-.82,3.53-4.86,0,0,1.75-3.92,1.75-3.92a3.75,3.75,0,0,1,1-1.74,2.59,2.59,0,0,1,.11.83,32.47,32.47,0,0,1-.14,3.7,2.28,2.28,0,0,1-.36,1.17l-0.41.31a2.43,2.43,0,0,0-1.35,2.12,2.53,2.53,0,0,0,1.88,2.46,17.09,17.09,0,0,0,5.4.58,18.58,18.58,0,0,0,5.53-.56,2.49,2.49,0,0,0,1.93-2.42,2.78,2.78,0,0,0-1.72-2.48l-0.26-.15a9.38,9.38,0,0,1-.34-2.31c-0.13-1.5-.19-3.42-0.19-5.73a45.83,45.83,0,0,1,.23-5.44,3.47,3.47,0,0,1,.59-1.95L33.79,59a2.22,2.22,0,0,0,1.37-2,2.46,2.46,0,0,0-1.58-2.37,11.38,11.38,0,0,0-4.41-.6,23.9,23.9,0,0,0-3.24.14"/><path class="cls-1" d="M45.26,68.89h5.57a31.86,31.86,0,0,0-1.76-3.59,2.21,2.21,0,0,0-1.15-1.22,1.61,1.61,0,0,0-.93,1c-0.38.66-1,1.94-1.74,3.82M34.41,77.46a1.52,1.52,0,0,1,.31-1,3.69,3.69,0,0,1,1.45-.78,2.44,2.44,0,0,0,1.32-.77,15.16,15.16,0,0,0,1-1.76c0.41-.83,1.12-2.37,2.12-4.61l0.52-1.13q3.85-8.52,4.2-10.31l0.05-.21a2.81,2.81,0,0,1,3.06-2.52,7.86,7.86,0,0,1,2.51.35,4.47,4.47,0,0,1,1.76,1.07A16.11,16.11,0,0,1,55,59q1.24,2.16,3.79,7.59c0.46,1,1,2.32,1.74,4a19.29,19.29,0,0,0,2.38,4.56,2.06,2.06,0,0,0,.91.44,2.39,2.39,0,0,1,.39.13,1.66,1.66,0,0,1,.71.59,1.37,1.37,0,0,1,.27.79c0,0.89-.58,1.55-1.76,2a18,18,0,0,1-5.55.63,25.08,25.08,0,0,1-6-.5c-1.15-.34-1.71-0.91-1.71-1.72a1.56,1.56,0,0,1,.21-0.84A1.86,1.86,0,0,1,51,76l0.41-.18a1.18,1.18,0,0,0,.92-0.94q0-.74-1.25-1.07A18.41,18.41,0,0,0,47,73.47a10.44,10.44,0,0,0-3.1.31A1.13,1.13,0,0,0,43,74.89a0.87,0.87,0,0,0,.18.59,2,2,0,0,0,.87.42,2.35,2.35,0,0,1,1.05.58,1.46,1.46,0,0,1,.25.91A1.82,1.82,0,0,1,44,79.11a12.31,12.31,0,0,1-4.26.55,11.07,11.07,0,0,1-4-.55,1.77,1.77,0,0,1-1.33-1.64"/><path class="cls-2" d="M64.43,75.08h0ZM46,57a2.18,2.18,0,0,1,2.42-2,7.27,7.27,0,0,1,2.31.31,4,4,0,0,1,1.51.91,15.57,15.57,0,0,1,2.17,3.07c0.82,1.43,2.08,4,3.76,7.55l1.73,3.95c1.52,3.55,2.17,4.42,2.52,4.77a2.65,2.65,0,0,0,1.2.61l0.27,0.09a1.09,1.09,0,0,1,.46.37,0.75,0.75,0,0,1,.15.43c0,0.24,0,.87-1.33,1.35a17.67,17.67,0,0,1-5.33.59A24.09,24.09,0,0,1,52,78.52c-1.24-.36-1.24-0.89-1.24-1.09a0.92,0.92,0,0,1,.12-0.49,1.19,1.19,0,0,1,.45-0.38l0.35-.15A1.72,1.72,0,0,0,53,74.86c0-.57-0.3-1.33-1.75-1.71A18.69,18.69,0,0,0,47,72.81a10.68,10.68,0,0,0-3.32.35,1.78,1.78,0,0,0-1.29,1.72,1.49,1.49,0,0,0,.35,1,2.42,2.42,0,0,0,1.16.62,1.75,1.75,0,0,1,.74.36,0.84,0.84,0,0,1,.11.5,1.17,1.17,0,0,1-1,1.11,11.87,11.87,0,0,1-4,.5A10.69,10.69,0,0,1,36,78.5a1.12,1.12,0,0,1-.92-1,0.89,0.89,0,0,1,.16-0.58,3.05,3.05,0,0,1,1.17-.59,3,3,0,0,0,1.64-1,14.82,14.82,0,0,0,1-1.84l2.13-4.63,0.52-1.13c2.6-5.77,4-9.19,4.25-10.45,0,0,0-.19,0-0.19h0Zm-1.28-.28s0,0.18,0,.18c-0.17.82-1,3.22-4.17,10.2L40,68.27l-2.11,4.59A13.91,13.91,0,0,1,37,74.53a1.85,1.85,0,0,1-1,.53,4.11,4.11,0,0,0-1.76,1,2.15,2.15,0,0,0-.46,1.42,2.39,2.39,0,0,0,1.74,2.26,11.75,11.75,0,0,0,4.25.59,12.9,12.9,0,0,0,4.5-.59A2.45,2.45,0,0,0,46,77.39a2.09,2.09,0,0,0-.39-1.32,2.77,2.77,0,0,0-1.36-.79A2,2,0,0,1,43.68,75a0.11,0.11,0,0,0,0,0,1,1,0,0,0,0-.12,0.49,0.49,0,0,1,.43-0.49A9.38,9.38,0,0,1,47,74.12a17.87,17.87,0,0,1,4,.3,1,1,0,0,1,.76.44,1.08,1.08,0,0,1-.52.33l-0.45.2a2.54,2.54,0,0,0-1,.85,2.23,2.23,0,0,0-.31,1.19c0,0.78.38,1.82,2.19,2.35a24.66,24.66,0,0,0,6.2.53,18.25,18.25,0,0,0,5.77-.66c1.82-.64,2.21-1.76,2.21-2.58a2,2,0,0,0-.38-1.16,2.24,2.24,0,0,0-1-.81l-0.49-.17a1.48,1.48,0,0,1-.62-0.28c-0.23-.23-0.84-1.11-2.23-4.35l-1.75-4c-1.69-3.62-3-6.19-3.81-7.64a16.42,16.42,0,0,0-2.39-3.35,5.24,5.24,0,0,0-2-1.23,8.64,8.64,0,0,0-2.72-.38,3.45,3.45,0,0,0-3.7,3.05"/><path class="cls-2" d="M47.56,65.39a5.16,5.16,0,0,1,.36-0.57,4.62,4.62,0,0,1,.58.81,27.38,27.38,0,0,1,1.3,2.61H46.25c0.58-1.36,1-2.33,1.32-2.85h0Zm-1.15-.64c-0.38.68-1,2-1.77,3.89l-0.38.9h7.55l-0.39-.91A30.83,30.83,0,0,0,49.62,65c-0.65-1.09-1.15-1.53-1.7-1.53a2,2,0,0,0-1.51,1.33"/><path class="cls-1" d="M80.82,54.91a4.8,4.8,0,0,0,1-.23,4.62,4.62,0,0,1,1.28-.22,2.87,2.87,0,0,1,1.13.23,2.54,2.54,0,0,1,.94.68,8.8,8.8,0,0,1,1.62,2.55,7.07,7.07,0,0,1,.59,2.74A3.52,3.52,0,0,1,86.67,63a2.53,2.53,0,0,1-2,.84,2.69,2.69,0,0,1-1.56-.5,4.5,4.5,0,0,1-1.33-1.45c-0.13-.19-0.28-0.44-0.46-0.76-0.53-.91-1-1.37-1.41-1.37a0.72,0.72,0,0,0-.66.34,2,2,0,0,0-.22,1v1.15c0,0.81,0,2.23-.08,4.29s-0.08,3.69-.08,4.91A7.72,7.72,0,0,0,79.11,74a2.06,2.06,0,0,0,1,1.1l0.55,0.25a1.71,1.71,0,0,1,1.25,1.57c0,1-.63,1.65-1.89,2.07a20.94,20.94,0,0,1-6.12.64,15.92,15.92,0,0,1-5.33-.7c-1.27-.46-1.91-1.12-1.91-2a2,2,0,0,1,1.53-1.72,5.81,5.81,0,0,0,.87-0.41c0.39-.29.7-1.27,0.91-2.94a57.14,57.14,0,0,0,.32-6.84V63.55a12,12,0,0,0-.22-3,0.82,0.82,0,0,0-.8-0.66,2.35,2.35,0,0,0-1.49,1.25l-0.41.58a7.67,7.67,0,0,1-1.65,1.71,2.61,2.61,0,0,1-1.48.44,2.16,2.16,0,0,1-1.68-.73,2.69,2.69,0,0,1-.66-1.87A6,6,0,0,1,62.42,59a13.11,13.11,0,0,1,1.42-2.57,6.66,6.66,0,0,1,1.4-1.5,2.27,2.27,0,0,1,1.35-.51,3.51,3.51,0,0,1,1,.22,3.53,3.53,0,0,0,1,.23H80.82"/><path class="cls-2" d="M80.92,74.77h0ZM82,55.31a4.12,4.12,0,0,1,1.09-.2,2.2,2.2,0,0,1,.88.18,1.82,1.82,0,0,1,.7.51,8.09,8.09,0,0,1,1.5,2.37,6.43,6.43,0,0,1,.54,2.48,2.93,2.93,0,0,1-.56,1.94,1.92,1.92,0,0,1-1.55.62,2.1,2.1,0,0,1-1.2-.39,4.07,4.07,0,0,1-1.13-1.25l-0.45-.74c-0.69-1.15-1.31-1.69-2-1.69a1.39,1.39,0,0,0-1.22.63,2.59,2.59,0,0,0-.31,1.39v1.15l-0.08,4.27-0.09,4.93a8.32,8.32,0,0,0,.33,2.74,2.75,2.75,0,0,0,1.31,1.45L80.41,76a1.05,1.05,0,0,1,.85,1c0,0.42-.15,1-1.44,1.46a20.56,20.56,0,0,1-5.9.6,15.6,15.6,0,0,1-5.11-.66q-1.47-.55-1.47-1.35c0-.16,0-0.66,1.11-1.1l1-.48C70,75,70.39,74,70.64,72A59,59,0,0,0,71,65.09V63.55a11,11,0,0,0-.26-3.2,1.47,1.47,0,0,0-1.42-1.12c-0.64,0-1.29.48-2,1.53l-0.4.57a7.57,7.57,0,0,1-1.48,1.54,2,2,0,0,1-1.12.33A1.51,1.51,0,0,1,63,62.69a2,2,0,0,1-.5-1.43,5.45,5.45,0,0,1,.47-2,13,13,0,0,1,1.35-2.44,5.8,5.8,0,0,1,1.25-1.35,1.65,1.65,0,0,1,1-.38,2.84,2.84,0,0,1,.78.19,3.9,3.9,0,0,0,1.21.26H80.82A4.44,4.44,0,0,0,82,55.31h0Zm-0.37-1.26a4.41,4.41,0,0,1-.84.2H68.58a2.94,2.94,0,0,1-.79-0.19,4,4,0,0,0-1.2-.26,2.92,2.92,0,0,0-1.74.64,7.37,7.37,0,0,0-1.54,1.64,14,14,0,0,0-1.5,2.7,6.71,6.71,0,0,0-.57,2.47,3.33,3.33,0,0,0,.83,2.31,2.8,2.8,0,0,0,2.17,1A3.29,3.29,0,0,0,66.08,64a8.33,8.33,0,0,0,1.81-1.85l0.42-.6a2.06,2.06,0,0,1,1-1s0.1,0,.17.22a11.32,11.32,0,0,1,.19,2.79v1.54a57.84,57.84,0,0,1-.31,6.75c-0.27,2.16-.63,2.48-0.64,2.5S68,74.67,68,74.67C66.36,75.3,66,76.29,66,77c0,1.14.78,2,2.33,2.57a16.47,16.47,0,0,0,5.56.74,21.3,21.3,0,0,0,6.32-.67c1.93-.65,2.33-1.82,2.33-2.7a2.31,2.31,0,0,0-1.66-2.17l-0.52-.23a1.39,1.39,0,0,1-.67-0.76,6.74,6.74,0,0,1-.24-2.27l0.08-4.9,0.09-4.3V61.17a1.36,1.36,0,0,1,.11-0.69s0,0,.11,0a2.52,2.52,0,0,1,.84,1l0.49,0.79a5.2,5.2,0,0,0,1.5,1.63,3.37,3.37,0,0,0,1.93.62,3.19,3.19,0,0,0,2.54-1.07,4.14,4.14,0,0,0,.88-2.8,7.82,7.82,0,0,0-.64-3,9.54,9.54,0,0,0-1.73-2.74,3.2,3.2,0,0,0-1.17-.84,3.56,3.56,0,0,0-1.39-.28,5.27,5.27,0,0,0-1.46.25"/><path class="cls-1" d="M106.54,54.91a4.75,4.75,0,0,0,1-.23,4.69,4.69,0,0,1,1.29-.22,2.89,2.89,0,0,1,1.12.23,2.58,2.58,0,0,1,.94.68,8.64,8.64,0,0,1,1.61,2.55,7,7,0,0,1,.59,2.74A3.51,3.51,0,0,1,112.4,63a2.54,2.54,0,0,1-2,.84,2.71,2.71,0,0,1-1.56-.5,4.52,4.52,0,0,1-1.32-1.45c-0.13-.19-0.28-0.44-0.46-0.76q-0.81-1.37-1.41-1.37a0.73,0.73,0,0,0-.66.34,2,2,0,0,0-.21,1v1.15c0,0.81,0,2.23-.09,4.29s-0.08,3.69-.08,4.91a7.76,7.76,0,0,0,.28,2.51,2.08,2.08,0,0,0,1,1.1l0.55,0.25a1.71,1.71,0,0,1,1.26,1.57q0,1.44-1.89,2.07a20.91,20.91,0,0,1-6.12.64,15.94,15.94,0,0,1-5.33-.7q-1.9-.7-1.9-2a2,2,0,0,1,1.53-1.72,5.62,5.62,0,0,0,.87-0.41q0.59-.43.91-2.94A58.17,58.17,0,0,0,96,65.09V63.55a12.33,12.33,0,0,0-.22-3,0.82,0.82,0,0,0-.8-0.66,2.37,2.37,0,0,0-1.5,1.25l-0.42.58a7.72,7.72,0,0,1-1.64,1.71,2.62,2.62,0,0,1-1.48.44,2.15,2.15,0,0,1-1.68-.73,2.66,2.66,0,0,1-.66-1.87A6,6,0,0,1,88.14,59a12.72,12.72,0,0,1,1.43-2.57A6.42,6.42,0,0,1,91,55a2.3,2.3,0,0,1,1.35-.51,3.42,3.42,0,0,1,1,.22,3.48,3.48,0,0,0,1,.23h12.24"/><path class="cls-2" d="M107.75,55.31a4.1,4.1,0,0,1,1.1-.2,2.16,2.16,0,0,1,.87.18,1.94,1.94,0,0,1,.71.51,8.31,8.31,0,0,1,1.5,2.37,6.45,6.45,0,0,1,.53,2.48,2.91,2.91,0,0,1-.56,1.94,1.92,1.92,0,0,1-1.55.62,2.13,2.13,0,0,1-1.2-.39A4.06,4.06,0,0,1,108,61.56s-0.46-.74-0.46-0.74c-0.43-.73-1.1-1.69-2-1.69a1.4,1.4,0,0,0-1.21.63,2.63,2.63,0,0,0-.32,1.39v1.15L104,66.58l-0.08,4.93a8.1,8.1,0,0,0,.33,2.74,2.72,2.72,0,0,0,1.3,1.45l0.6,0.27a1,1,0,0,1,.86,1c0,0.42-.15,1-1.44,1.46a20.6,20.6,0,0,1-5.91.6,15.56,15.56,0,0,1-5.1-.66c-1-.37-1.47-0.81-1.47-1.35,0-.16,0-0.66,1.12-1.1l1-.48c0.6-.44.95-1.45,1.19-3.41a58.25,58.25,0,0,0,.32-6.92V63.55a11.2,11.2,0,0,0-.25-3.2A1.48,1.48,0,0,0,95,59.23c-0.65,0-1.29.48-2,1.52l-0.4.57a7.26,7.26,0,0,1-1.48,1.55,2,2,0,0,1-1.12.33,1.51,1.51,0,0,1-1.2-.52,2,2,0,0,1-.49-1.43,5.38,5.38,0,0,1,.47-2,12.66,12.66,0,0,1,1.36-2.44,5.9,5.9,0,0,1,1.25-1.35,1.66,1.66,0,0,1,1-.38,2.7,2.7,0,0,1,.78.19,4,4,0,0,0,1.21.26h12.24a4.45,4.45,0,0,0,1.21-.26h0Zm-0.37-1.26a4.26,4.26,0,0,1-.84.2H94.3a2.88,2.88,0,0,1-.77-0.19,4.12,4.12,0,0,0-1.22-.26,2.91,2.91,0,0,0-1.73.64A7.1,7.1,0,0,0,89,56.08a13.91,13.91,0,0,0-1.5,2.7A6.74,6.74,0,0,0,87,61.26a3.33,3.33,0,0,0,.83,2.31,2.77,2.77,0,0,0,2.17,1A3.27,3.27,0,0,0,91.8,64a8.24,8.24,0,0,0,1.81-1.85l0.43-.6a2.16,2.16,0,0,1,1-1s0.1,0,.17.22a10.84,10.84,0,0,1,.19,2.79v1.54a57.79,57.79,0,0,1-.31,6.75c-0.27,2.16-.63,2.48-0.64,2.5l-0.73.34c-1.6.63-1.94,1.62-1.94,2.32,0,1.14.79,2,2.34,2.57a16.46,16.46,0,0,0,5.56.74,21.4,21.4,0,0,0,6.33-.67c1.92-.65,2.33-1.82,2.33-2.7a2.31,2.31,0,0,0-1.65-2.17l-0.52-.23a1.43,1.43,0,0,1-.68-0.76,6.67,6.67,0,0,1-.24-2.27l0.09-4.9,0.09-4.3V61.17a1.39,1.39,0,0,1,.11-0.69s0,0,.1,0a2.5,2.5,0,0,1,.84,1l0.49,0.79a5.13,5.13,0,0,0,1.5,1.63,3.38,3.38,0,0,0,1.93.62,3.19,3.19,0,0,0,2.54-1.07,4.16,4.16,0,0,0,.88-2.8,7.86,7.86,0,0,0-.63-3,9.73,9.73,0,0,0-1.74-2.74,3.24,3.24,0,0,0-1.18-.84,3.52,3.52,0,0,0-1.38-.28,5.35,5.35,0,0,0-1.47.25"/><path class="cls-1" d="M124.93,65.06l0.63,0.13,0.39,0a2.23,2.23,0,0,0,1.95-.81,4.84,4.84,0,0,0,.59-2.74,3.33,3.33,0,0,0-.6-2.18,2.26,2.26,0,0,0-1.84-.7,1,1,0,0,0-1,.46,6.47,6.47,0,0,0-.23,2.23V63c0,0.51,0,.92,0,1.21s0,0.58.05,0.87m0.14,4.23v3.27a13.09,13.09,0,0,0,.1,2.09,1.1,1.1,0,0,0,.36.72,5,5,0,0,0,.55.35,2.1,2.1,0,0,1,1.3,1.75,1.8,1.8,0,0,1-1.46,1.72,18.33,18.33,0,0,1-5.19.5,18.77,18.77,0,0,1-5.35-.54,1.94,1.94,0,0,1-1.63-1.79,2.08,2.08,0,0,1,1.41-1.7l0.37-.2c0.28-.14.5-1,0.67-2.52a56.81,56.81,0,0,0,.26-6.09V65.62c0-2.7-.05-4.45-0.16-5.26a2.19,2.19,0,0,0-.54-1.48,5.92,5.92,0,0,0-.69-0.38,1.93,1.93,0,0,1-1.33-1.62,1.6,1.6,0,0,1,1.16-1.48,9.27,9.27,0,0,1,3.45-.49l1.47,0h2q1.42,0,3.7-.06t3.16-.07a12.14,12.14,0,0,1,6.87,1.64,5.35,5.35,0,0,1,2.4,4.7,5.41,5.41,0,0,1-.61,2.59,5,5,0,0,1-1.78,1.88,6.77,6.77,0,0,1-.78.41,1.19,1.19,0,0,0-.8.71c0,0.25.34,0.48,1,.68a5.71,5.71,0,0,1,1.54.65,5.16,5.16,0,0,1,1.63,1.82,10,10,0,0,1,.93,3c0,0.14.05,0.34,0.09,0.58,0.2,1.23.46,1.91,0.77,2l0.31,0.12c1.11,0.41,1.67.92,1.67,1.56a2.29,2.29,0,0,1-1.6,2,10,10,0,0,1-4.25.76,11,11,0,0,1-2.74-.31,5.37,5.37,0,0,1-1.93-.93c-0.91-.73-1.67-2.21-2.27-4.43a1.34,1.34,0,0,0,0-.15c0-.13-0.09-0.35-0.17-0.64q-1.13-4.3-3-4.3a2.58,2.58,0,0,0-.47,0l-0.45.11"/><path class="cls-2" d="M139.81,76.1h0Zm-14.66-.19h0Zm0.43-20.38,3.14-.07a11.57,11.57,0,0,1,6.5,1.52,4.67,4.67,0,0,1,2.11,4.15,4.89,4.89,0,0,1-.52,2.28,4.47,4.47,0,0,1-1.57,1.64l-0.69.37a1.71,1.71,0,0,0-1.2,1.31c0,0.88,1.11,1.19,1.53,1.3a4.7,4.7,0,0,1,1.35.56,4.49,4.49,0,0,1,1.43,1.59,9.47,9.47,0,0,1,.86,2.79l0.08,0.56c0.27,1.6.62,2.34,1.2,2.55l0.31,0.11a1.6,1.6,0,0,1,1.23.94c0,0.2,0,.81-1.22,1.4a9.39,9.39,0,0,1-4,.7,10,10,0,0,1-2.57-.29,4.5,4.5,0,0,1-1.69-.81c-0.8-.64-1.49-2-2-4.09l0-.1-0.1-.41-0.08-.28c-0.84-3.21-2-4.78-3.66-4.78l-0.6.05-0.52.13-0.51.12,0,0.5v3.27a13,13,0,0,0,.12,2.21,1.67,1.67,0,0,0,.62,1.13l0.6,0.38c1,0.55,1,1,1,1.19a1.15,1.15,0,0,1-1,1.1,17.6,17.6,0,0,1-5,.47,18.26,18.26,0,0,1-5.15-.51c-1.18-.4-1.18-1-1.18-1.16a1.54,1.54,0,0,1,1.06-1.11l0.38-.21c0.45-.23.76-0.81,1-3a56.58,56.58,0,0,0,.26-6.16V65.62c0-2.75-.05-4.5-0.16-5.34a2.59,2.59,0,0,0-.83-1.94l-0.77-.43a1.37,1.37,0,0,1-1-1,0.92,0.92,0,0,1,.77-0.87,8.58,8.58,0,0,1,3.19-.45l1.46,0h2l3.72-.06h0Zm0-1.31-3.68.06-2,0-1.48,0a9.77,9.77,0,0,0-3.71.55,2.21,2.21,0,0,0-1.55,2.08,2.51,2.51,0,0,0,1.69,2.21l0.61,0.34a2.46,2.46,0,0,1,.27,1c0.09,0.78.14,2.52,0.14,5.18v1.26a56.1,56.1,0,0,1-.26,6,6.2,6.2,0,0,1-.41,2.06l-0.28.15a2.64,2.64,0,0,0-1.75,2.28c0,0.78.35,1.83,2.08,2.41a19,19,0,0,0,5.56.57,18.39,18.39,0,0,0,5.4-.54,2.4,2.4,0,0,0,1.9-2.34,2.71,2.71,0,0,0-1.63-2.32l-0.48-.3a0.78,0.78,0,0,1-.12-0.33,11.72,11.72,0,0,1-.09-2V69.82l0.27,0c0.9,0,1.76,1.35,2.4,3.81l0.17,0.65s0,0.12,0,.12c0.65,2.42,1.47,4,2.51,4.81a5.78,5.78,0,0,0,2.17,1,11.41,11.41,0,0,0,2.91.34,10.69,10.69,0,0,0,4.53-.83,2.9,2.9,0,0,0,2-2.58c0-.93-0.71-1.66-2.1-2.17l-0.23-.09a4.18,4.18,0,0,1-.43-1.54l-0.08-.58a10.67,10.67,0,0,0-1-3.2A5.79,5.79,0,0,0,137,67.52a6,6,0,0,0-1.73-.73,1.51,1.51,0,0,1-.26-0.09l0.14-.08,0.85-.45A5.67,5.67,0,0,0,138,64a6.06,6.06,0,0,0,.68-2.89A6,6,0,0,0,136,55.9a12.88,12.88,0,0,0-7.24-1.76l-3.18.07"/><path class="cls-2" d="M125.47,65.84h0Zm0.06-1.68,0-1.19v-1.5a5.73,5.73,0,0,1,.16-1.94,0.54,0.54,0,0,1,.37-0.1,1.65,1.65,0,0,1,1.34.48,2.74,2.74,0,0,1,.44,1.75,4.19,4.19,0,0,1-.46,2.36,1.63,1.63,0,0,1-1.42.54l-0.29,0-0.1,0c0-.17,0-0.35,0-0.35h0Zm-1-5.22a5.85,5.85,0,0,0-.3,2.53V63l0,1.24,0.08,1.4,0.47,0.08,0.69,0.15,0.48,0a2.86,2.86,0,0,0,2.48-1.08,5.32,5.32,0,0,0,.71-3.13,4,4,0,0,0-.75-2.6,2.89,2.89,0,0,0-2.34-.94,1.57,1.57,0,0,0-1.54.82"/><path class="cls-1" d="M156.77,79.44H144.12a4.3,4.3,0,0,1-2.17-.37,1.45,1.45,0,0,1-.57-1.32,1.91,1.91,0,0,1,1.21-1.63,5,5,0,0,0,.82-0.54,5.16,5.16,0,0,0,.86-2.77,66,66,0,0,0,.26-7.14,46.19,46.19,0,0,0-.18-4.88,3.53,3.53,0,0,0-.59-1.9,7.45,7.45,0,0,0-1.14-.64,1.61,1.61,0,0,1-1-1.49,1.53,1.53,0,0,1,.79-1.39,4.5,4.5,0,0,1,2.32-.48l3.37,0.07c2.07,0,4.05.07,5.95,0.07a65.12,65.12,0,0,0,7.87-.42l0.38,0a2.59,2.59,0,0,1,2.26,1.37,6.75,6.75,0,0,1,.86,3.62,3.43,3.43,0,0,1-.58,2.09,1.82,1.82,0,0,1-1.54.78,2.49,2.49,0,0,1-1.92-1.27,4.62,4.62,0,0,0-.46-0.6,4.32,4.32,0,0,0-1.77-1.19,7.92,7.92,0,0,0-2.59-.37,18.75,18.75,0,0,0-2.55.11,1.45,1.45,0,0,0-.82.38,2.65,2.65,0,0,0-.33,1.16,21.15,21.15,0,0,0-.11,2.45,3.12,3.12,0,0,0,.28,1.74,2.12,2.12,0,0,0,1.4.29,1.93,1.93,0,0,0,1.13-.25,1.66,1.66,0,0,0,.51-1c0-.09.06-0.21,0.09-0.38q0.41-2.13,1.61-2.13a2,2,0,0,1,1.89,1.24,8.56,8.56,0,0,1,.64,3.75,12.06,12.06,0,0,1-.68,4.62,2.16,2.16,0,0,1-2,1.56c-0.77,0-1.26-.58-1.46-1.76a1.27,1.27,0,0,0,0-.15,3.12,3.12,0,0,0-.51-1.53,1.76,1.76,0,0,0-1.16-.29,1.58,1.58,0,0,0-1.28.38,3.51,3.51,0,0,0-.3,1.87,23.26,23.26,0,0,0,.1,2.77,1.89,1.89,0,0,0,.36.92,1.58,1.58,0,0,0,.92.42,13.63,13.63,0,0,0,2.27.13,9.64,9.64,0,0,0,3.29-.48,4.69,4.69,0,0,0,2.12-1.47,12,12,0,0,0,.75-1.05,2.42,2.42,0,0,1,1.9-1.42,1.94,1.94,0,0,1,1.52.58,2.48,2.48,0,0,1,.52,1.7,9.06,9.06,0,0,1-.36,2.47,11.33,11.33,0,0,1-1,2.49,6,6,0,0,1-1.1,1.52,1.67,1.67,0,0,1-1.11.44L162.55,80a29.45,29.45,0,0,0-5.78-.54"/><path class="cls-2" d="M162.45,73.73h0ZM156.7,64h0Zm5.61-8.79A1.92,1.92,0,0,1,164,56.27a6.13,6.13,0,0,1,.75,3.27,2.82,2.82,0,0,1-.44,1.7,1.17,1.17,0,0,1-1,.51,1.92,1.92,0,0,1-1.39-1l-0.51-.66a4.88,4.88,0,0,0-2-1.36,8.3,8.3,0,0,0-2.8-.41,16.9,16.9,0,0,0-2.67.13,2.08,2.08,0,0,0-1.2.57,2.88,2.88,0,0,0-.49,1.52,20.79,20.79,0,0,0-.12,2.54,3.23,3.23,0,0,0,.46,2.19,3.52,3.52,0,0,0,3.4.12A2.24,2.24,0,0,0,156.7,64l0.09-.39c0.14-.74.43-1.61,1-1.61a1.38,1.38,0,0,1,1.31.88,8.11,8.11,0,0,1,.56,3.45,11.74,11.74,0,0,1-.62,4.35,1.5,1.5,0,0,1-1.39,1.17c-0.16,0-.61,0-0.81-1.21l-0.05-.25,0,0.11a3.32,3.32,0,0,0-.71-1.9,2.32,2.32,0,0,0-1.61-.47,2.16,2.16,0,0,0-1.79.62,3.73,3.73,0,0,0-.45,2.28,21.63,21.63,0,0,0,.11,2.87,2.4,2.4,0,0,0,.52,1.27,2.2,2.2,0,0,0,1.28.62,14.57,14.57,0,0,0,2.39.14,10.35,10.35,0,0,0,3.51-.52,5.38,5.38,0,0,0,2.41-1.69l0.79-1.1a1.88,1.88,0,0,1,1.36-1.12,1.29,1.29,0,0,1,1,.37,1.88,1.88,0,0,1,.35,1.27,8.61,8.61,0,0,1-.33,2.29,11.13,11.13,0,0,1-1,2.34,5,5,0,0,1-1,1.35,1,1,0,0,1-.67.27l-0.33-.07a31.19,31.19,0,0,0-5.92-.54H144.12a3.58,3.58,0,0,1-1.81-.27,0.78,0.78,0,0,1-.27-0.77,1.21,1.21,0,0,1,.88-1l0.95-.64a5.52,5.52,0,0,0,1.08-3.18,67.92,67.92,0,0,0,.26-7.22,46.38,46.38,0,0,0-.18-5,4,4,0,0,0-.77-2.3,6.15,6.15,0,0,0-1.32-.77,0.94,0.94,0,0,1-.64-0.9,0.88,0.88,0,0,1,.47-0.83,4,4,0,0,1,2-.39l3.36,0.06,6,0.07a64.92,64.92,0,0,0,7.95-.43l0.31,0h0Zm-0.45-1.28a63.74,63.74,0,0,1-7.8.42l-5.93-.06-3.39-.06a5.16,5.16,0,0,0-2.66.57,2.19,2.19,0,0,0-1.11,2,2.24,2.24,0,0,0,1.36,2.07l1,0.55a3.44,3.44,0,0,1,.36,1.49,44.94,44.94,0,0,1,.18,4.8,65.42,65.42,0,0,1-.26,7.06,4.55,4.55,0,0,1-.67,2.39s-0.69.44-.69,0.44a2.48,2.48,0,0,0-1.54,2.19,2,2,0,0,0,.86,1.86,4.71,4.71,0,0,0,2.53.48h12.65a29.05,29.05,0,0,1,5.66.52L163,80.71a2.27,2.27,0,0,0,1.53-.6,6.1,6.1,0,0,0,1.26-1.7,12.66,12.66,0,0,0,1.1-2.63,9.69,9.69,0,0,0,.39-2.65,3.11,3.11,0,0,0-.69-2.14,2.55,2.55,0,0,0-2-.81,3,3,0,0,0-2.46,1.73l-0.69,1a4.08,4.08,0,0,1-1.85,1.29,9.14,9.14,0,0,1-3.06.43,13.82,13.82,0,0,1-2.15-.11,1,1,0,0,1-.54-0.2,1.09,1.09,0,0,1-.21-0.61,21.14,21.14,0,0,1-.09-2.66h0a3.73,3.73,0,0,1,.16-1.47,1.37,1.37,0,0,1,.76-0.13,1.39,1.39,0,0,1,.72.11,3.51,3.51,0,0,1,.31,1.15h0l0,0.08v0.06c0.33,2,1.46,2.3,2.1,2.3a2.76,2.76,0,0,0,2.59-2,12.47,12.47,0,0,0,.73-4.88,9.15,9.15,0,0,0-.7-4,2.69,2.69,0,0,0-2.48-1.6c-0.8,0-1.83.46-2.25,2.66l-0.08.35a1.25,1.25,0,0,1-.26.64,1.42,1.42,0,0,1-.75.12,2.73,2.73,0,0,1-.91-0.1,4.25,4.25,0,0,1-.12-1.29,20,20,0,0,1,.12-2.37,2.88,2.88,0,0,1,.18-0.84,1.38,1.38,0,0,1,.44-0.14,17.84,17.84,0,0,1,2.43-.09,7.15,7.15,0,0,1,2.37.32,3.61,3.61,0,0,1,1.51,1l0.41,0.53a3.1,3.1,0,0,0,2.46,1.54,2.5,2.5,0,0,0,2.06-1,4.08,4.08,0,0,0,.7-2.48,7.41,7.41,0,0,0-1-4,3.24,3.24,0,0,0-2.81-1.67l-0.44,0"/><path class="cls-1" d="M177.61,80.06a20.67,20.67,0,0,1-5.68-.77,8.12,8.12,0,0,1-3.59-1.74,5.88,5.88,0,0,1-1.21-2.38,12.63,12.63,0,0,1-.43-3.44,2.57,2.57,0,0,1,.41-1.61,1.52,1.52,0,0,1,1.29-.52,2.9,2.9,0,0,1,2.17,1.58,9.7,9.7,0,0,0,.58.8,9.2,9.2,0,0,0,2.63,2.33,6,6,0,0,0,2.95.78,3.51,3.51,0,0,0,1.86-.44,1.3,1.3,0,0,0,.72-1.14c0-.61-0.9-1.22-2.73-1.83-0.81-.26-1.45-0.48-1.94-0.67a13.79,13.79,0,0,1-5.56-3.45,7,7,0,0,1-1.84-4.84,7.21,7.21,0,0,1,2.9-5.88,11.55,11.55,0,0,1,7.44-2.32,16.58,16.58,0,0,1,3.36.35l1.72,0.35a5.83,5.83,0,0,0,1.16-.15,5.48,5.48,0,0,1,1-.16,2.45,2.45,0,0,1,1.19.29,4.34,4.34,0,0,1,1.13,1,9.31,9.31,0,0,1,1.44,2.19,5.1,5.1,0,0,1,.52,2.09,2.6,2.6,0,0,1-.71,1.9,2.49,2.49,0,0,1-1.86.73,4.61,4.61,0,0,1-2.71-1.55c-0.35-.33-0.63-0.58-0.84-0.74a5.75,5.75,0,0,0-3.73-1.44,2.77,2.77,0,0,0-1.56.38,1.19,1.19,0,0,0-.56,1.05c0,0.87,1.34,1.69,4,2.44L182,63.46a12.94,12.94,0,0,1,5.75,2.92,6.52,6.52,0,0,1,1.68,4.71,7.78,7.78,0,0,1-3.27,6.47,13.76,13.76,0,0,1-8.59,2.5"/><path class="cls-2" d="M178.94,75.19a1.94,1.94,0,0,0,1-1.69c0-1-1-1.72-3.18-2.45l-1.91-.66a13.24,13.24,0,0,1-5.3-3.27,6.33,6.33,0,0,1-1.68-4.41,6.54,6.54,0,0,1,2.66-5.37,11,11,0,0,1,7-2.18,16,16,0,0,1,3.23.34,17.1,17.1,0,0,0,1.86.37l1.3-.17,0.87-.14a1.84,1.84,0,0,1,.88.21,3.58,3.58,0,0,1,.94.81,8.66,8.66,0,0,1,1.35,2,4.46,4.46,0,0,1,.45,1.81,2,2,0,0,1-.53,1.44,1.88,1.88,0,0,1-1.39.54c-0.29,0-1-.18-2.26-1.38l-0.88-.77a6.24,6.24,0,0,0-1.91-1.15,6.15,6.15,0,0,0-2.23-.42,3.37,3.37,0,0,0-1.92.49,1.86,1.86,0,0,0-.84,1.6c0,1.25,1.38,2.2,4.5,3.07l0.85,0.25a12.48,12.48,0,0,1,5.46,2.75,5.82,5.82,0,0,1,1.5,4.25,7.12,7.12,0,0,1-3,6,13.25,13.25,0,0,1-8.19,2.36,19.94,19.94,0,0,1-5.5-.74,7.2,7.2,0,0,1-3.3-1.56A5.22,5.22,0,0,1,167.76,75a11.94,11.94,0,0,1-.42-3.26,1.92,1.92,0,0,1,.27-1.2,0.86,0.86,0,0,1,.78-0.27A2.49,2.49,0,0,1,170,71.55l0.62,0.84a9.79,9.79,0,0,0,2.82,2.48,6.72,6.72,0,0,0,3.27.86,4.2,4.2,0,0,0,2.21-.54h0Zm-9.2-18.87a7.87,7.87,0,0,0-3.15,6.4,7.7,7.7,0,0,0,2,5.28,14.38,14.38,0,0,0,5.82,3.62l2,0.68c2.15,0.71,2.28,1.2,2.28,1.21a0.65,0.65,0,0,1-.41.57,2.92,2.92,0,0,1-1.52.34,5.35,5.35,0,0,1-2.63-.7,8.33,8.33,0,0,1-2.43-2.15l-0.55-.76a3.49,3.49,0,0,0-2.72-1.87,2.18,2.18,0,0,0-1.81.77,3.17,3.17,0,0,0-.54,2,13.41,13.41,0,0,0,.46,3.62A6.52,6.52,0,0,0,167.85,78a8.62,8.62,0,0,0,3.9,1.93,21.35,21.35,0,0,0,5.86.79,14.49,14.49,0,0,0,9-2.63,8.43,8.43,0,0,0,3.53-7,7.17,7.17,0,0,0-1.87-5.16c-1.21-1.26-3.18-2.27-6-3.1l-0.86-.25c-3.51-1-3.55-1.78-3.55-1.81a0.55,0.55,0,0,1,.27-0.51,2.16,2.16,0,0,1,1.19-.26,5,5,0,0,1,1.76.33,5.08,5.08,0,0,1,1.54.94L183.4,62c1.24,1.16,2.27,1.73,3.15,1.73a3.16,3.16,0,0,0,2.32-.93,3.24,3.24,0,0,0,.91-2.36,5.68,5.68,0,0,0-.58-2.36,9.69,9.69,0,0,0-1.55-2.35,4.78,4.78,0,0,0-1.3-1.1,3.14,3.14,0,0,0-1.5-.37l-1.14.17-1,.13-1.62-.33a17,17,0,0,0-3.5-.37,12.22,12.22,0,0,0-7.85,2.47"/><path class="cls-1" d="M200.78,80.06a20.73,20.73,0,0,1-5.68-.77,8.17,8.17,0,0,1-3.6-1.74,5.9,5.9,0,0,1-1.2-2.38,12.7,12.7,0,0,1-.44-3.44,2.64,2.64,0,0,1,.41-1.61,1.55,1.55,0,0,1,1.29-.52,2.88,2.88,0,0,1,2.18,1.58q0.36,0.53.58,0.8a9.2,9.2,0,0,0,2.63,2.33,6,6,0,0,0,2.95.78,3.56,3.56,0,0,0,1.87-.44,1.32,1.32,0,0,0,.72-1.14q0-.92-2.73-1.83c-0.81-.26-1.46-0.48-1.94-0.67a13.7,13.7,0,0,1-5.56-3.45,7,7,0,0,1-1.84-4.84,7.2,7.2,0,0,1,2.9-5.88,11.54,11.54,0,0,1,7.44-2.32,16.56,16.56,0,0,1,3.37.35l1.72,0.35a5.87,5.87,0,0,0,1.17-.15,5.54,5.54,0,0,1,1-.16,2.48,2.48,0,0,1,1.19.29,4.3,4.3,0,0,1,1.13,1,9.57,9.57,0,0,1,1.44,2.19,5,5,0,0,1,.52,2.09,2.6,2.6,0,0,1-.72,1.9,2.49,2.49,0,0,1-1.85.73A4.6,4.6,0,0,1,207,61.51c-0.35-.33-0.63-0.58-0.84-0.74a5.76,5.76,0,0,0-3.73-1.44,2.78,2.78,0,0,0-1.56.38,1.2,1.2,0,0,0-.56,1.05q0,1.31,4,2.44l0.86,0.25A12.89,12.89,0,0,1,211,66.38a6.51,6.51,0,0,1,1.69,4.71,7.78,7.78,0,0,1-3.27,6.47,13.77,13.77,0,0,1-8.59,2.5"/><path class="cls-2" d="M202.11,75.19a1.94,1.94,0,0,0,1-1.69c0-1-1-1.72-3.19-2.45l-1.9-.66a13.26,13.26,0,0,1-5.31-3.27,6.36,6.36,0,0,1-1.67-4.41,6.55,6.55,0,0,1,2.65-5.37,11,11,0,0,1,7-2.18,16,16,0,0,1,3.23.34,16.82,16.82,0,0,0,1.85.37l1.3-.17,0.87-.14a1.82,1.82,0,0,1,.88.21,3.43,3.43,0,0,1,.94.81,8.66,8.66,0,0,1,1.35,2,4.42,4.42,0,0,1,.46,1.81,2,2,0,0,1-.53,1.44,1.88,1.88,0,0,1-1.39.54c-0.29,0-1-.18-2.26-1.38l-0.88-.77a6.28,6.28,0,0,0-1.91-1.15,6.19,6.19,0,0,0-2.23-.42,3.4,3.4,0,0,0-1.93.49,1.86,1.86,0,0,0-.85,1.6c0,1.25,1.39,2.2,4.51,3.07L205,64.09a12.41,12.41,0,0,1,5.46,2.75,5.82,5.82,0,0,1,1.5,4.25,7.09,7.09,0,0,1-3,6,13.23,13.23,0,0,1-8.19,2.36,20,20,0,0,1-5.5-.74A7.2,7.2,0,0,1,192,77.1,5.08,5.08,0,0,1,190.93,75a11.94,11.94,0,0,1-.41-3.26,1.93,1.93,0,0,1,.27-1.2,0.84,0.84,0,0,1,.77-0.27,2.47,2.47,0,0,1,1.63,1.29l0.62,0.84a9.72,9.72,0,0,0,2.82,2.48,6.68,6.68,0,0,0,3.26.86,4.2,4.2,0,0,0,2.21-.54h0ZM192.9,56.32a7.87,7.87,0,0,0-3.15,6.4,7.75,7.75,0,0,0,2,5.28,14.47,14.47,0,0,0,5.83,3.62l2,0.68c2.16,0.71,2.27,1.2,2.27,1.21a0.65,0.65,0,0,1-.41.57,2.92,2.92,0,0,1-1.53.34,5.32,5.32,0,0,1-2.63-.7,8.46,8.46,0,0,1-2.44-2.15l-0.55-.76a3.48,3.48,0,0,0-2.72-1.87,2.18,2.18,0,0,0-1.81.77,3.19,3.19,0,0,0-.55,2,13.41,13.41,0,0,0,.46,3.62A6.57,6.57,0,0,0,191,78a8.6,8.6,0,0,0,3.9,1.93,21.41,21.41,0,0,0,5.87.79,14.48,14.48,0,0,0,9-2.63,8.44,8.44,0,0,0,3.53-7,7.17,7.17,0,0,0-1.87-5.16c-1.21-1.26-3.19-2.27-6-3.1l-0.86-.25c-3.51-1-3.55-1.78-3.55-1.81a0.55,0.55,0,0,1,.28-0.51,2.12,2.12,0,0,1,1.18-.26,4.92,4.92,0,0,1,1.76.33,5.12,5.12,0,0,1,1.54.94L206.56,62c1.26,1.16,2.28,1.73,3.16,1.73a3.16,3.16,0,0,0,2.32-.93,3.24,3.24,0,0,0,.91-2.36,5.76,5.76,0,0,0-.58-2.37,10,10,0,0,0-1.54-2.34,4.81,4.81,0,0,0-1.31-1.1,3.15,3.15,0,0,0-1.51-.37l-1.15.17-1,.13-1.62-.33a16.94,16.94,0,0,0-3.5-.37,12.23,12.23,0,0,0-7.85,2.47"/><path class="cls-4" d="M217.28,56a2.63,2.63,0,1,1-2.72,2.62A2.66,2.66,0,0,1,217.26,56h0Zm0,0.53a2.1,2.1,0,0,0,0,4.19,2,2,0,0,0,2-2.1,2,2,0,0,0-2-2.1h0ZM216.85,60h-0.61V57.39a5.11,5.11,0,0,1,1-.1,1.48,1.48,0,0,1,.91.21,0.71,0.71,0,0,1,.26.56,0.67,0.67,0,0,1-.54.62v0a0.75,0.75,0,0,1,.48.64,1.7,1.7,0,0,0,.19.64h-0.66a2.08,2.08,0,0,1-.21-0.62,0.46,0.46,0,0,0-.54-0.42h-0.29v1Zm0-1.47h0.29c0.34,0,.61-0.11.61-0.38s-0.18-.4-0.56-0.4a1.47,1.47,0,0,0-.34,0v0.75Z"/></svg>